<?xml version="1.0" standalone="no"?>
<!DOCTYPE svg PUBLIC "-//W3C//DTD SVG 20010904//EN"
 "http://www.w3.org/TR/2001/REC-SVG-20010904/DTD/svg10.dtd">
<svg version="1.0" xmlns="http://www.w3.org/2000/svg"
 width="400pt" height="267pt" viewBox="0 0 1400.000000 467.000000"
 preserveAspectRatio="xMidYMid meet">
<metadata>
Created by potrace 1.10, written by Peter Selinger 2001-2011
</metadata>
<g transform="translate(0.000000,1261.00000) scale(0.1-0.1)"
fill="#000000" stroke="none">
<path d="M1260 14130 c-11 -7 -15 -3104 -4 -3122 3 -5 857 -8 2127 -8 1167 1
2136 -1 2152 -5 26 -5 83 0 245 20 53 7 90 24 90 40 0 6 23 26 50 44 28 18 64
44 81 59 68 57 148 190 172 287 13 54 18 273 6 280 -5 4 -9 14 -9 23 0 23 -41
122 -65 158 -11 16 -22 34 -25 40 -11 24 -82 95 -127 127 -134 94 -316 150
-486 152 l-59 0 -3 361 c-1 199 -5 366 -9 372 -3 6 -2 13 3 16 10 7 9 86 -2
103 -6 10 38 73 66 94 17 12 -19 16 -88 10 -68 -6 -70 -7 -73 -34 -2 -16 2
-35 9 -43 8 -10 12 -126 11 -451 l0 -438 -43 -8 c-24 -4 -53 -5 -64 -3 -29 8
-211 -43 -300 -84 -11 -5 -33 -11 -50 -13 -35 -5 -88 -23 -128 -43 -16 -8 -34
-14 -40 -14 -10 0 -90 -37 -219 -101 -31 -15 -65 -32 -75 -37 -10 -5 -33 -16
-50 -25 -74 -38 -174 -88 -193 -98 -63 -30 -150 -69 -154 -69 -3 0 -34 -13
-69 -30 -36 -16 -72 -30 -79 -30 -8 0 -23 -7 -34 -15 -10 -8 -27 -15 -37 -15
-11 0 -31 -7 -45 -14 -15 -8 -72 -29 -127 -47 -55 -17 -118 -37 -140 -44 -39
-12 -171 -43 -285 -65 -69 -14 -398 -8 -500 9 -131 22 -333 98 -428 162 -24
16 -45 29 -48 29 -7 0 -111 82 -149 117 -90 84 -188 222 -223 313 -41 108 -54
186 -55 325 -1 80 3 153 10 170 6 17 17 50 24 75 58 204 237 365 469 424 88
22 217 31 254 17 27 -11 28 -13 12 -30 -9 -9 -16 -21 -16 -26 0 -5 -6 -16 -13
-24 -12 -15 -30 -54 -62 -141 -66 -174 -107 -277 -126 -312 -5 -10 -9 -26 -9
-37 0 -10 -6 -24 -14 -30 -7 -6 -16 -27 -19 -46 -3 -20 -20 -65 -36 -100 -17
-36 -31 -71 -31 -77 0 -21 -33 -101 -58 -141 -13 -21 -45 -52 -73 -69 -33 -21
-46 -35 -40 -42 13 -16 313 -15 318 1 3 7 -11 19 -29 27 -70 31 -83 49 -83
113 1 38 9 78 23 113 37 89 39 93 55 135 9 22 32 83 52 135 20 52 42 109 50
125 7 17 21 53 30 80 10 28 22 55 25 60 4 6 21 53 39 105 17 52 39 110 49 128
15 29 20 32 47 27 59 -12 214 -91 256 -131 14 -13 30 -24 36 -24 25 0 99 -90
117 -142 10 -29 28 -76 41 -104 13 -29 27 -69 31 -90 3 -22 12 -46 19 -54 7
-8 27 -53 45 -100 18 -47 42 -107 52 -135 55 -142 54 -183 -6 -232 -19 -14
-32 -31 -30 -37 3 -7 58 -11 165 -10 169 1 205 10 153 37 -16 8 -41 28 -56 44
-32 33 -89 148 -108 215 -7 26 -23 69 -36 94 -13 26 -24 55 -24 64 0 9 -4 20
-8 26 -4 5 -18 36 -31 69 -12 33 -29 75 -37 93 -8 18 -14 40 -14 48 0 9 -6 28
-14 42 -7 15 -23 54 -35 87 -13 33 -34 87 -48 120 -26 61 -29 67 -56 145 -22
64 -85 220 -103 253 -8 16 -17 47 -20 70 -4 23 -15 52 -26 64 -11 12 -17 27
-13 33 4 6 1 18 -6 27 -8 8 -12 28 -11 43 2 15 -4 32 -13 40 -8 7 -18 30 -21
51 -4 22 -9 39 -11 39 -19 0 -43 -25 -43 -45 0 -13 -4 -27 -10 -30 -5 -3 -10
-18 -10 -33 0 -15 -9 -40 -20 -57 -11 -16 -20 -37 -20 -46 0 -9 -7 -19 -15
-23 -8 -3 -14 -16 -13 -28 0 -13 -16 -59 -37 -103 -21 -44 -44 -102 -50 -129
-15 -66 -30 -74 -98 -53 -69 22 -97 21 -188 -3 -41 -11 -86 -20 -100 -20 -55
0 -254 -118 -325 -192 -91 -94 -180 -248 -215 -370 -15 -50 -15 -52 -28 -178
-24 -231 43 -498 168 -670 50 -69 173 -200 187 -200 7 0 17 -6 21 -14 13 -22
178 -129 243 -157 14 -6 32 -15 40 -20 8 -5 22 -12 30 -15 8 -3 29 -12 45 -19
26 -12 160 -48 323 -85 114 -27 416 -22 587 9 118 21 306 70 319 82 6 5 19 9
30 9 12 0 30 7 40 15 11 8 30 15 43 15 12 0 39 7 60 16 21 9 52 22 68 29 17 7
53 21 80 30 53 19 210 90 285 129 100 52 207 110 240 131 19 12 67 39 105 59
80 42 98 52 123 66 9 6 24 13 32 16 8 3 22 9 30 14 30 18 119 60 127 60 4 0
30 11 58 25 44 21 136 51 295 95 77 22 321 24 409 4 147 -33 260 -100 332
-199 81 -109 108 -228 84 -369 -15 -88 -35 -150 -53 -168 -7 -7 -12 -17 -12
-24 0 -26 -129 -150 -186 -179 l-59 -30 -2214 3 -2214 4 2 1061 c0 584 4 1256
8 1494 l6 431 156 -4 c213 -7 6362 -6 6631 0 118 3 1084 6 2145 6 l1930 1 6
-173 c4 -95 7 -582 9 -1083 1 -500 4 -1094 5 -1320 2 -296 -1 -412 -9 -417 -6
-4 -171 -8 -366 -8 -305 0 -401 -5 -560 -25 -37 -5 -38 -6 -10 -15 14 -4 237
-8 496 -9 389 -1 474 1 483 13 13 16 17 3075 4 3087 -18 16 -10967 35 -10993
19z m1534 -686 c1 -16 11 -49 22 -74 31 -68 43 -110 37 -126 -3 -7 2 -17 11
-20 9 -3 16 -14 16 -23 0 -9 21 -56 45 -106 50 -100 55 -125 25 -125 -11 0
-20 4 -20 9 0 22 -211 151 -249 151 -21 1 -51 24 -51 39 0 6 7 23 17 37 9 14
35 80 57 147 50 149 53 154 73 134 9 -8 16 -28 17 -43z m1376 -1783 c0 -15
-24 -28 -63 -35 -46 -9 -43 7 6 28 38 17 57 19 57 7z m-150 -66 c0 -3 -15 -14
-32 -25 -35 -21 -68 -26 -68 -10 0 6 6 10 14 10 7 0 19 7 26 15 11 14 60 22
60 10z m-335 -125 c3 -5 -3 -10 -15 -10 -12 0 -18 5 -15 10 3 6 10 10 15 10 5
0 12 -4 15 -10z m-147 -57 c2 -8 -6 -13 -22 -13 -17 0 -26 5 -26 16 0 19 41
16 48 -3z m-341 -79 c-3 -4 -14 -3 -24 0 -15 6 -15 8 -3 16 16 10 39 -4 27
-16z m-387 6 c0 -5 -7 -10 -15 -10 -8 0 -15 5 -15 10 0 6 7 10 15 10 8 0 15
-4 15 -10z"/>
<path d="M7047 13204 c-3 -4 -28 -8 -54 -11 -26 -2 -60 -10 -77 -18 -16 -8
-35 -15 -43 -15 -7 0 -13 -4 -13 -10 0 -5 -10 -19 -23 -32 -51 -52 -67 -95
-67 -178 0 -88 16 -126 80 -191 47 -48 101 -81 264 -164 159 -80 217 -126 234
-183 24 -79 10 -125 -54 -182 -48 -41 -95 -62 -164 -70 -107 -14 -194 12 -315
95 -108 73 -162 103 -191 107 -41 4 -36 -15 11 -48 302 -206 303 -207 450
-207 100 0 115 2 169 28 150 71 213 212 152 340 -22 48 -104 134 -156 164 -67
39 -185 101 -204 107 -11 4 -40 19 -64 35 -24 16 -47 29 -51 29 -10 0 -84 86
-93 108 -10 26 -9 100 2 107 6 3 10 16 10 29 0 26 44 70 80 81 14 4 30 15 37
24 17 24 201 22 215 -2 5 -9 20 -17 33 -17 31 0 152 -118 157 -152 2 -13 10
-23 18 -23 12 0 15 16 13 94 -2 52 -5 97 -8 99 -3 3 -13 -2 -23 -11 -26 -24
-44 -21 -104 15 -38 23 -71 34 -118 39 -36 3 -72 10 -81 13 -8 4 -18 4 -22 0z"/>
<path d="M5510 13187 l-35 -10 50 -8 c28 -5 85 -7 127 -5 62 2 84 -1 105 -16
16 -10 35 -18 43 -18 8 0 21 -10 29 -22 11 -18 11 -22 -3 -30 -124 -69 -240
-319 -216 -463 21 -122 86 -258 153 -322 53 -49 149 -110 214 -135 47 -18 79
-22 175 -22 76 0 127 5 145 13 15 7 48 23 73 35 52 24 210 176 210 201 0 9 10
35 22 58 12 23 26 50 31 61 14 29 20 196 9 251 -14 69 -31 111 -71 175 -38 61
-62 86 -136 146 -70 56 -97 72 -138 79 -20 4 -41 13 -48 21 -13 16 -75 19 -84
4 -8 -14 -51 -13 -91 2 -29 10 -36 9 -54 -7 -11 -10 -34 -18 -51 -17 -18 0
-38 -7 -50 -19 -28 -28 -58 -23 -94 16 l-33 34 -123 4 c-68 2 -140 -1 -159 -6z
m740 -72 c9 -8 25 -15 36 -15 20 0 129 -88 161 -130 32 -42 83 -142 83 -164 0
-12 6 -33 14 -47 15 -30 30 -157 20 -182 -6 -18 -34 -24 -34 -8 0 5 -16 18
-36 30 -38 23 -148 30 -182 11 -9 -5 -35 -17 -57 -27 -42 -18 -95 -53 -210
-139 -62 -46 -77 -52 -130 -57 -113 -9 -167 40 -169 152 -1 68 4 79 66 155 9
12 32 41 52 66 19 25 42 53 51 63 8 9 15 25 15 35 0 10 7 27 15 38 18 24 19
78 1 93 -8 6 -16 24 -18 39 -3 15 -8 35 -12 44 -10 23 61 56 129 60 96 7 187
-1 205 -17z m-352 -140 c4 -78 0 -93 -48 -152 -22 -28 -40 -56 -40 -61 0 -6
-6 -15 -12 -19 -17 -11 -48 -67 -48 -87 0 -21 -38 -59 -50 -51 -13 8 -13 61 1
105 5 19 12 49 13 65 7 56 58 173 103 233 19 25 31 32 51 30 25 -3 27 -6 30
-63z m578 -415 c34 0 75 -40 68 -67 -9 -32 -32 -36 -69 -13 -63 39 -143 18
-265 -69 -119 -85 -160 -105 -253 -121 -41 -8 -56 -6 -93 12 -24 12 -47 30
-50 41 -8 25 0 31 24 18 12 -6 49 -11 84 -11 73 0 102 14 225 107 117 89 181
116 262 107 24 -2 54 -4 67 -4z m7 -115 c35 -6 50 -26 27 -40 -5 -3 -17 -21
-25 -39 -26 -55 -155 -166 -192 -166 -10 0 -28 -7 -41 -15 -27 -20 -193 -17
-200 3 -2 8 7 12 26 12 44 0 99 28 179 93 40 31 76 57 81 57 5 0 15 7 22 15 8
10 30 15 61 15 48 0 72 13 43 24 -59 23 -124 -2 -254 -98 -68 -51 -112 -72
-170 -84 -54 -10 -125 6 -125 28 0 12 15 15 65 15 52 1 79 7 130 32 36 17 77
42 92 55 67 59 176 109 223 102 11 -2 37 -6 58 -9z"/>
<path d="M3405 13168 c-22 -17 -25 -28 -25 -78 0 -59 13 -87 24 -52 4 10 27
36 52 57 l46 40 107 -4 c58 -1 107 -4 107 -4 1 -1 5 -207 9 -457 l7 -455 -26
-29 c-41 -43 -29 -54 59 -53 42 0 78 4 81 8 3 5 -7 26 -21 48 l-26 39 3 448 3
449 113 5 112 5 60 -53 c32 -29 61 -48 65 -42 9 15 -6 80 -27 116 l-18 31
-341 0 c-321 0 -341 -1 -364 -19z"/>
<path d="M4350 13175 c0 -9 15 -23 34 -32 19 -9 43 -31 53 -50 10 -19 28 -41
41 -49 12 -8 22 -21 22 -28 0 -8 6 -27 14 -43 8 -15 36 -73 61 -128 63 -134
58 -123 87 -180 14 -27 42 -84 61 -125 134 -286 178 -370 192 -370 9 0 18 8
21 18 3 9 12 29 20 44 20 37 18 53 -10 66 -14 6 -35 34 -51 69 -119 252 -163
344 -184 383 -4 8 -24 49 -43 90 -20 41 -66 137 -103 213 l-67 137 -74 0 c-59
0 -74 -3 -74 -15z"/>
<path d="M7590 13179 c0 -6 13 -29 28 -52 l29 -42 -5 -454 -5 -455 -23 -23
c-13 -13 -24 -28 -24 -33 0 -11 173 -14 183 -3 4 4 -4 18 -17 32 -24 25 -25
31 -28 198 -1 94 0 174 3 177 3 4 48 2 100 -4 105 -10 234 4 303 34 52 23 137
105 164 159 63 126 27 291 -83 377 -22 17 -49 38 -60 48 -11 9 -36 17 -56 18
-20 1 -50 9 -67 18 -25 13 -68 16 -237 16 -139 0 -205 -3 -205 -11z m471 -65
c8 -8 22 -14 30 -14 25 0 100 -76 121 -121 70 -153 -5 -344 -153 -394 -59 -19
-307 -37 -324 -23 -5 5 -10 118 -12 271 -1 144 -5 272 -8 284 l-5 22 167 -6
c121 -4 172 -10 184 -19z"/>
<path d="M8490 13178 c0 -7 11 -23 25 -38 30 -32 29 -13 27 -532 l-2 -426 -26
-32 c-15 -17 -24 -34 -21 -37 8 -7 167 -4 179 4 6 3 -3 18 -18 34 l-27 29 -4
212 c-2 117 -2 222 1 233 5 19 13 20 278 18 l273 -1 3 -204 c3 -226 0 -262
-29 -286 -39 -33 -24 -42 69 -42 49 0 92 3 95 6 4 4 -7 22 -23 41 l-30 34 0
445 c0 464 2 488 43 523 9 7 14 17 11 22 -7 12 -181 12 -188 0 -3 -5 6 -21 20
-36 14 -15 29 -37 33 -49 5 -11 7 -109 5 -216 l-3 -195 -280 -3 -281 -2 0 209
0 210 25 27 c14 15 25 35 25 45 0 17 -9 19 -90 19 -63 0 -90 -4 -90 -12z"/>
<path d="M9487 13184 c-4 -4 7 -23 24 -42 21 -24 29 -41 25 -56 -3 -11 -6
-222 -6 -469 0 -435 -1 -448 -20 -464 -41 -36 -26 -40 144 -45 91 -2 228 -2
306 0 l141 5 14 35 c16 36 20 94 8 105 -3 4 -22 -11 -41 -33 -53 -62 -79 -69
-270 -70 -92 0 -173 -1 -180 0 -10 0 -12 52 -10 243 3 236 4 242 23 239 11 -2
74 -5 140 -7 97 -4 122 -8 132 -21 23 -31 43 -9 43 46 0 56 -18 74 -48 47 -13
-11 -49 -16 -149 -19 -72 -1 -134 0 -137 3 -12 12 -14 448 -2 452 6 2 96 2
200 1 l189 -3 49 -43 c28 -24 55 -45 60 -47 13 -4 3 79 -14 122 l-10 27 -303
0 c-166 0 -305 -3 -308 -6z"/>
<path d="M10297 13183 c-4 -4 4 -19 19 -34 l26 -27 -1 -470 c-1 -259 -4 -478
-7 -486 -3 -8 -12 -17 -20 -20 -8 -3 -14 -12 -14 -21 0 -12 16 -15 89 -15 50
0 92 4 95 8 3 5 -8 22 -24 37 l-30 29 0 171 0 172 114 -2 c63 -2 120 -6 126
-10 9 -5 135 -190 150 -220 3 -5 31 -49 62 -96 56 -85 58 -86 104 -92 89 -10
110 13 46 50 -32 18 -122 129 -122 149 0 4 -13 23 -30 44 -16 21 -30 41 -30
44 0 4 -18 31 -41 61 -49 65 -48 86 3 97 75 15 155 84 200 171 16 32 22 60 22
122 1 72 -3 88 -32 148 -18 37 -43 72 -55 78 -12 7 -32 21 -44 33 -53 50 -64
56 -102 56 -21 0 -52 7 -67 15 -23 12 -71 15 -230 15 -110 0 -204 -3 -207 -7z
m490 -74 c48 -21 105 -75 130 -122 21 -40 29 -177 14 -233 -17 -63 -71 -126
-137 -161 -58 -31 -63 -31 -209 -34 l-150 -3 -5 285 c-3 172 -2 287 4 291 5 3
77 4 160 1 119 -4 160 -9 193 -24z"/>
<path d="M11244 13179 c-4 -7 6 -23 25 -38 l31 -26 0 -462 0 -462 -31 -36
c-18 -20 -30 -37 -28 -39 8 -7 417 -12 519 -7 l104 6 8 40 c5 22 13 44 18 49
13 13 13 56 0 56 -5 0 -26 -17 -47 -39 -64 -65 -80 -70 -270 -72 -94 -1 -176
2 -182 5 -17 11 -15 460 2 474 9 8 26 8 57 1 25 -6 80 -9 122 -7 68 4 80 2
105 -18 15 -12 31 -20 35 -17 12 6 10 121 -2 128 -5 3 -22 -3 -37 -14 -24 -16
-49 -20 -155 -23 -83 -3 -129 0 -131 7 -1 5 -1 109 1 231 l4 220 189 -3 c202
-3 196 -1 252 -60 49 -53 92 -34 53 23 -8 11 -18 36 -23 55 l-9 34 -301 3
c-222 2 -304 -1 -309 -9z"/>
<path d="M5274 13065 c-3 -13 -12 -29 -20 -36 -8 -6 -14 -18 -14 -27 0 -8 -20
-55 -45 -104 -25 -49 -45 -95 -45 -102 0 -8 -7 -19 -15 -26 -8 -7 -15 -25 -15
-41 0 -15 -7 -34 -15 -43 -8 -8 -15 -21 -15 -28 0 -8 -7 -23 -15 -34 -8 -10
-15 -26 -15 -34 0 -8 -7 -28 -15 -44 -8 -15 -15 -36 -15 -46 0 -10 -6 -25 -13
-32 -25 -25 -58 -168 -38 -168 12 0 98 176 116 238 3 12 11 22 16 22 5 0 9 10
9 23 0 12 9 40 20 62 11 22 20 45 20 52 0 7 5 13 10 13 6 0 10 9 10 21 0 11 7
33 15 47 21 40 67 172 72 212 3 19 14 42 25 50 12 10 17 22 12 33 -9 24 -23
21 -30 -8z"/>
<path d="M4436 13005 c-5 -11 -10 -193 -12 -405 l-4 -385 -31 -28 c-46 -42
-33 -56 49 -56 92 0 107 11 64 47 l-33 27 -5 365 c-5 371 -12 473 -28 435z"/>
<path d="M10300 11303 c-8 -3 -19 -12 -23 -19 -4 -8 -13 -14 -19 -14 -29 0
-76 -52 -103 -115 l-28 -66 19 -56 c22 -65 69 -124 118 -147 54 -26 148 -21
201 10 74 43 121 150 102 229 -14 56 -77 144 -103 145 -6 0 -17 7 -24 15 -9
10 -28 15 -54 14 -23 -1 -48 1 -56 4 -8 3 -22 3 -30 0z m86 -48 c10 -8 26 -15
34 -15 21 -1 52 -29 78 -71 42 -69 23 -162 -45 -218 -132 -109 -305 41 -237
205 23 57 77 99 145 113 3 0 14 -6 25 -14z"/>
<path d="M8388 11292 c-10 -2 -18 -11 -18 -19 0 -13 9 -15 49 -10 49 6 50 6
57 -26 3 -17 5 -106 3 -197 l-4 -165 30 0 30 0 0 180 c0 99 4 186 8 193 5 7
29 12 58 12 39 0 49 3 49 16 0 15 -10 16 -77 11 -43 -3 -98 -2 -123 2 -25 4
-53 5 -62 3z"/>
<path d="M8706 11281 c-17 -19 -17 -22 26 -78 83 -111 90 -131 82 -233 l-7
-89 26 -6 c44 -12 50 0 44 87 -5 60 -3 88 9 118 9 22 20 40 25 40 5 0 14 11
19 25 5 13 21 43 35 65 26 41 30 80 10 87 -13 4 -75 -101 -75 -126 0 -17 -29
-51 -43 -51 -3 0 -23 28 -43 63 -20 34 -39 64 -43 67 -3 3 -11 14 -17 24 -15
28 -28 29 -48 7z"/>
<path d="M7063 11280 c-23 -9 -23 -12 -23 -204 0 -168 2 -195 16 -200 9 -3 58
-6 110 -6 92 0 96 1 123 29 51 52 49 116 -4 169 -26 26 -32 47 -15 57 6 3 10
25 10 49 0 46 -27 81 -83 104 -32 14 -102 15 -134 2z m144 -57 c40 -46 41 -64
6 -103 -21 -21 -39 -30 -68 -32 l-40 -3 -3 79 c-2 44 0 86 3 94 10 26 67 6
102 -35z m43 -182 c34 -24 39 -80 9 -107 -16 -15 -36 -19 -88 -19 l-66 0 -3
64 c-2 35 -1 70 2 77 7 18 114 7 146 -15z"/>
<path d="M7366 11275 c-11 -9 -12 -44 -7 -205 l6 -195 103 -3 c85 -2 103 0
108 13 10 25 -3 30 -84 30 l-77 0 0 70 0 70 50 1 c70 1 75 2 75 19 0 12 -13
15 -60 15 -72 0 -76 6 -64 88 l9 57 80 5 c78 5 81 6 77 40 -2 14 -197 9 -216
-5z"/>
<path d="M9345 11278 c-11 -6 -35 -26 -52 -44 -30 -30 -32 -35 -22 -63 6 -17
26 -43 45 -58 19 -16 50 -41 70 -57 61 -51 68 -114 15 -136 -38 -15 -78 -3
-103 31 -17 22 -25 26 -39 18 -22 -11 -15 -34 20 -68 37 -36 125 -42 163 -11
38 29 53 84 39 137 -9 34 -23 50 -80 92 -77 58 -84 68 -67 102 15 32 61 38 76
10 11 -21 50 -29 50 -11 0 17 -34 50 -52 50 -9 0 -20 5 -23 10 -8 13 -15 12
-40 -2z"/>
<path d="M9903 11283 c-10 -3 -13 -54 -13 -203 0 -230 -14 -207 128 -209 76
-1 93 1 98 14 10 25 -3 30 -84 30 l-77 0 -3 180 c-3 191 -7 206 -49 188z"/>
<path d="M10610 11268 c0 -39 20 -98 34 -98 7 0 22 -10 33 -22 27 -31 124
-173 153 -225 23 -42 50 -60 70 -48 6 4 10 82 10 206 0 193 -1 199 -20 199
-11 0 -23 -7 -27 -16 -3 -8 -1 -74 6 -146 6 -72 8 -134 5 -137 -9 -9 -53 47
-115 145 -89 143 -149 199 -149 142z"/>
<path d="M7751 11240 c-12 -22 -21 -49 -21 -59 0 -10 -7 -24 -15 -31 -8 -7
-15 -21 -15 -32 0 -11 -7 -32 -15 -46 -8 -15 -24 -49 -35 -77 -11 -27 -25 -58
-30 -67 -22 -40 -5 -67 30 -48 13 7 20 21 20 40 0 16 6 35 14 42 7 8 16 25 20
38 4 14 11 34 16 45 7 18 34 96 46 134 7 22 42 -31 54 -82 9 -44 17 -65 46
-134 8 -17 14 -38 14 -45 0 -19 32 -48 53 -48 28 0 29 18 3 77 -54 128 -86
213 -86 231 0 11 -7 25 -15 32 -8 7 -15 18 -15 25 0 12 -31 45 -42 45 -3 0
-15 -18 -27 -40z"/>
<path d="M7982 11267 c-11 -13 -1 -215 14 -284 9 -43 68 -101 111 -109 65 -12
121 1 154 36 54 56 68 102 70 235 1 114 1 119 -21 127 -12 5 -30 4 -41 -3 -19
-10 -20 -18 -13 -132 8 -161 -9 -206 -83 -222 -42 -8 -101 19 -115 54 -6 16
-8 78 -4 163 5 117 3 137 -10 142 -25 10 -51 7 -62 -7z"/>
<path d="M9666 11255 c-9 -13 -16 -33 -16 -43 0 -11 -7 -25 -15 -32 -8 -7 -15
-21 -15 -32 0 -10 -7 -21 -15 -24 -9 -4 -15 -19 -15 -39 0 -18 -7 -38 -15 -45
-8 -7 -15 -22 -15 -34 0 -12 -5 -27 -12 -34 -14 -14 -37 -80 -30 -87 3 -3 13
-5 22 -5 16 0 50 62 50 91 0 8 6 23 13 34 11 16 38 94 53 153 5 20 34 14 43
-10 5 -13 23 -61 41 -108 55 -149 63 -164 81 -167 8 -2 21 1 29 6 11 8 12 14
2 33 -6 13 -28 66 -47 118 -20 51 -40 99 -45 105 -5 6 -12 30 -16 53 -3 23
-13 47 -20 53 -8 6 -14 18 -14 25 0 23 -26 16 -44 -11z"/>
<path d="M10626 11078 c-3 -24 -8 -75 -11 -115 -5 -65 -3 -73 15 -83 37 -20
43 -4 37 104 -6 103 -13 136 -27 136 -5 0 -11 -19 -14 -42z"/>
<path d="M5943 11053 c-63 -6 -57 -30 10 -38 92 -11 750 -1 754 11 2 6 -4 15
-14 19 -20 8 -684 15 -750 8z"/>
</g>
</svg>
