<svg xmlns="http://www.w3.org/2000/svg" width="250pt" height="90" version="1.0" viewBox="0 0 1400 50"><path d="M126-152c-1.1.7-1.5 310.4-.4 312.2.3.5 85.7.8 212.7.8 116.7-.1 213.6.1 215.2.5 2.6.5 8.3 0 24.5-2 5.3-.7 9-2.4 9-4 0-.6 2.3-2.6 5-4.4 2.8-1.8 6.4-4.4 8.1-5.9 6.8-5.7 14.8-19 17.2-28.7 1.3-5.4 1.8-27.3.6-28-.5-.4-.9-1.4-.9-2.3 0-2.3-4.1-12.2-6.5-15.8-1.1-1.6-2.2-3.4-2.5-4-1.1-2.4-8.2-9.5-12.7-12.7-13.4-9.4-31.6-15-48.6-15.2h-5.9l-.3-36.1c-.1-19.9-.5-36.6-.9-37.2-.3-.6-.2-1.3.3-1.6 1-.7.9-8.6-.2-10.3-.6-1 3.8-7.3 6.6-9.4 1.7-1.2-1.9-1.6-8.8-1-6.8.6-7 .7-7.3 3.4-.2 1.6.2 3.5.9 4.3.8 1 1.2 12.6 1.1 45.1v43.8l-4.3.8c-2.4.4-5.3.5-6.4.3-2.9-.8-21.1 4.3-30 8.4-1.1.5-3.3 1.1-5 1.3-3.5.5-8.8 2.3-12.8 4.3-1.6.8-3.4 1.4-4 1.4-1 0-9 3.7-21.9 10.1-3.1 1.5-6.5 3.2-7.5 3.7s-3.3 1.6-5 2.5c-7.4 3.8-17.4 8.8-19.3 9.8-6.3 3-15 6.9-15.4 6.9-.3 0-3.4 1.3-6.9 3-3.6 1.6-7.2 3-7.9 3-.8 0-2.3.7-3.4 1.5-1 .8-2.7 1.5-3.7 1.5-1.1 0-3.1.7-4.5 1.4-1.5.8-7.2 2.9-12.7 4.7-5.5 1.7-11.8 3.7-14 4.4-3.9 1.2-17.1 4.3-28.5 6.5-6.9 1.4-39.8.8-50-.9-13.1-2.2-33.3-9.8-42.8-16.2-2.4-1.6-4.5-2.9-4.8-2.9-.7 0-11.1-8.2-14.9-11.7-9-8.4-18.8-22.2-22.3-31.3-4.1-10.8-5.4-18.6-5.5-32.5-.1-8 .3-15.3 1-17 .6-1.7 1.7-5 2.4-7.5 5.8-20.4 23.7-36.5 46.9-42.4 8.8-2.2 21.7-3.1 25.4-1.7 2.7 1.1 2.8 1.3 1.2 3-.9.9-1.6 2.1-1.6 2.6s-.6 1.6-1.3 2.4c-1.2 1.5-3 5.4-6.2 14.1C239.9-9.6 235.8.7 233.9 4.2c-.5 1-.9 2.6-.9 3.7 0 1-.6 2.4-1.4 3-.7.6-1.6 2.7-1.9 4.6-.3 2-2 6.5-3.6 10-1.7 3.6-3.1 7.1-3.1 7.7 0 2.1-3.3 10.1-5.8 14.1-1.3 2.1-4.5 5.2-7.3 6.9-3.3 2.1-4.6 3.5-4 4.2 1.3 1.6 31.3 1.5 31.8-.1.3-.7-1.1-1.9-2.9-2.7-7-3.1-8.3-4.9-8.3-11.3.1-3.8.9-7.8 2.3-11.3 3.7-8.9 3.9-9.3 5.5-13.5.9-2.2 3.2-8.3 5.2-13.5 2-5.2 4.2-10.9 5-12.5.7-1.7 2.1-5.3 3-8 1-2.8 2.2-5.5 2.5-6 .4-.6 2.1-5.3 3.9-10.5 1.7-5.2 3.9-11 4.9-12.8 1.5-2.9 2-3.2 4.7-2.7 5.9 1.2 21.4 9.1 25.6 13.1 1.4 1.3 3 2.4 3.6 2.4 2.5 0 9.9 9 11.7 14.2 1 2.9 2.8 7.6 4.1 10.4 1.3 2.9 2.7 6.9 3.1 9 .3 2.2 1.2 4.6 1.9 5.4.7.8 2.7 5.3 4.5 10 1.8 4.7 4.2 10.7 5.2 13.5 5.5 14.2 5.4 18.3-.6 23.2-1.9 1.4-3.2 3.1-3 3.7.3.7 5.8 1.1 16.5 1 16.9-.1 20.5-1 15.3-3.7-1.6-.8-4.1-2.8-5.6-4.4-3.2-3.3-8.9-14.8-10.8-21.5-.7-2.6-2.3-6.9-3.6-9.4-1.3-2.6-2.4-5.5-2.4-6.4 0-.9-.4-2-.8-2.6-.4-.5-1.8-3.6-3.1-6.9-1.2-3.3-2.9-7.5-3.7-9.3-.8-1.8-1.4-4-1.4-4.8 0-.9-.6-2.8-1.4-4.2-.7-1.5-2.3-5.4-3.5-8.7-1.3-3.3-3.4-8.7-4.8-12-2.6-6.1-2.9-6.7-5.6-14.5-2.2-6.4-8.5-22-10.3-25.3-.8-1.6-1.7-4.7-2-7-.4-2.3-1.5-5.2-2.6-6.4-1.1-1.2-1.7-2.7-1.3-3.3.4-.6.1-1.8-.6-2.7-.8-.8-1.2-2.8-1.1-4.3.2-1.5-.4-3.2-1.3-4-.8-.7-1.8-3-2.1-5.1-.4-2.2-.9-3.9-1.1-3.9-1.9 0-4.3 2.5-4.3 4.5 0 1.3-.4 2.7-1 3-.5.3-1 1.8-1 3.3 0 1.5-.9 4-2 5.7-1.1 1.6-2 3.7-2 4.6 0 .9-.7 1.9-1.5 2.3-.8.3-1.4 1.6-1.3 2.8 0 1.3-1.6 5.9-3.7 10.3s-4.4 10.2-5 12.9c-1.5 6.6-3 7.4-9.8 5.3-6.9-2.2-9.7-2.1-18.8.3-4.1 1.1-8.6 2-10 2-5.5 0-25.4 11.8-32.5 19.2-9.1 9.4-18 24.8-21.5 37-1.5 5-1.5 5.2-2.8 17.8-2.4 23.1 4.3 49.8 16.8 67 5 6.9 17.3 20 18.7 20 .7 0 1.7.6 2.1 1.4 1.3 2.2 17.8 12.9 24.3 15.7 1.4.6 3.2 1.5 4 2 .8.5 2.2 1.2 3 1.5.8.3 2.9 1.2 4.5 1.9 2.6 1.2 16 4.8 32.3 8.5 11.4 2.7 41.6 2.2 58.7-.9 11.8-2.1 30.6-7 31.9-8.2.6-.5 1.9-.9 3-.9 1.2 0 3-.7 4-1.5 1.1-.8 3-1.5 4.3-1.5 1.2 0 3.9-.7 6-1.6 2.1-.9 5.2-2.2 6.8-2.9 1.7-.7 5.3-2.1 8-3 5.3-1.9 21-9 28.5-12.9 10-5.2 20.7-11 24-13.1 1.9-1.2 6.7-3.9 10.5-5.9 8-4.2 9.8-5.2 12.3-6.6.9-.6 2.4-1.3 3.2-1.6.8-.3 2.2-.9 3-1.4 3-1.8 11.9-6 12.7-6 .4 0 3-1.1 5.8-2.5 4.4-2.1 13.6-5.1 29.5-9.5 7.7-2.2 32.1-2.4 40.9-.4 14.7 3.3 26 10 33.2 19.9 8.1 10.9 10.8 22.8 8.4 36.9-1.5 8.8-3.5 15-5.3 16.8-.7.7-1.2 1.7-1.2 2.4 0 2.6-12.9 15-18.6 17.9l-5.9 3-221.4-.3-221.4-.4.2-106.1c0-58.4.4-125.6.8-149.4l.6-43.1 15.6.4c21.3.7 636.2.6 663.1 0 11.8-.3 108.4-.6 214.5-.6l193-.1.6 17.3c.4 9.5.7 58.2.9 108.3.1 50 .4 109.4.5 132 .2 29.6-.1 41.2-.9 41.7-.6.4-17.1.8-36.6.8-30.5 0-40.1.5-56 2.5-3.7.5-3.8.6-1 1.5 1.4.4 23.7.8 49.6.9 38.9.1 47.4-.1 48.3-1.3 1.3-1.6 1.7-307.5.4-308.7-1.8-1.6-1096.7-3.5-1099.3-1.9zm153.4 68.6c.1 1.6 1.1 4.9 2.2 7.4 3.1 6.8 4.3 11 3.7 12.6-.3.7.2 1.7 1.1 2 .9.3 1.6 1.4 1.6 2.3 0 .9 2.1 5.6 4.5 10.6 5 10 5.5 12.5 2.5 12.5-1.1 0-2-.4-2-.9 0-2.2-21.1-15.1-24.9-15.1-2.1-.1-5.1-2.4-5.1-3.9 0-.6.7-2.3 1.7-3.7.9-1.4 3.5-8 5.7-14.7 5-14.9 5.3-15.4 7.3-13.4.9.8 1.6 2.8 1.7 4.3zM417 94.9c0 1.5-2.4 2.8-6.3 3.5-4.6.9-4.3-.7.6-2.8 3.8-1.7 5.7-1.9 5.7-.7zm-15 6.6c0 .3-1.5 1.4-3.2 2.5-3.5 2.1-6.8 2.6-6.8 1 0-.6.6-1 1.4-1 .7 0 1.9-.7 2.6-1.5 1.1-1.4 6-2.2 6-1zM368.5 114c.3.5-.3 1-1.5 1s-1.8-.5-1.5-1c.3-.6 1-1 1.5-1s1.2.4 1.5 1zm-14.7 5.7c.2.8-.6 1.3-2.2 1.3-1.7 0-2.6-.5-2.6-1.6 0-1.9 4.1-1.6 4.8.3zm-34.1 7.9c-.3.4-1.4.3-2.4 0-1.5-.6-1.5-.8-.3-1.6 1.6-1 3.9.4 2.7 1.6zM281 127c0 .5-.7 1-1.5 1s-1.5-.5-1.5-1c0-.6.7-1 1.5-1s1.5.4 1.5 1z"/><path d="M704.7-59.4c-.3.4-2.8.8-5.4 1.1-2.6.2-6 1-7.7 1.8-1.6.8-3.5 1.5-4.3 1.5-.7 0-1.3.4-1.3 1 0 .5-1 1.9-2.3 3.2-5.1 5.2-6.7 9.5-6.7 17.8 0 8.8 1.6 12.6 8 19.1 4.7 4.8 10.1 8.1 26.4 16.4 15.9 8 21.7 12.6 23.4 18.3 2.4 7.9 1 12.5-5.4 18.2-4.8 4.1-9.5 6.2-16.4 7-10.7 1.4-19.4-1.2-31.5-9.5-10.8-7.3-16.2-10.3-19.1-10.7-4.1-.4-3.6 1.5 1.1 4.8 30.2 20.6 30.3 20.7 45 20.7 10 0 11.5-.2 16.9-2.8 15-7.1 21.3-21.2 15.2-34-2.2-4.8-10.4-13.4-15.6-16.4-6.7-3.9-18.5-10.1-20.4-10.7-1.1-.4-4-1.9-6.4-3.5-2.4-1.6-4.7-2.9-5.1-2.9-1 0-8.4-8.6-9.3-10.8-1-2.6-.9-10 .2-10.7.6-.3 1-1.6 1-2.9 0-2.6 4.4-7 8-8.1 1.4-.4 3-1.5 3.7-2.4 1.7-2.4 20.1-2.2 21.5.2.5.9 2 1.7 3.3 1.7 3.1 0 15.2 11.8 15.7 15.2.2 1.3 1 2.3 1.8 2.3 1.2 0 1.5-1.6 1.3-9.4-.2-5.2-.5-9.7-.8-9.9-.3-.3-1.3.2-2.3 1.1-2.6 2.4-4.4 2.1-10.4-1.5-3.8-2.3-7.1-3.4-11.8-3.9-3.6-.3-7.2-1-8.1-1.3-.8-.4-1.8-.4-2.2 0z"/><path d="m551-57.7-3.5 1 5 .8c2.8.5 8.5.7 12.7.5 6.2-.2 8.4.1 10.5 1.6 1.6 1 3.5 1.8 4.3 1.8.8 0 2.1 1 2.9 2.2 1.1 1.8 1.1 2.2-.3 3-12.4 6.9-24 31.9-21.6 46.3 2.1 12.2 8.6 25.8 15.3 32.2 5.3 4.9 14.9 11 21.4 13.5 4.7 1.8 7.9 2.2 17.5 2.2 7.6 0 12.7-.5 14.5-1.3 1.5-.7 4.8-2.3 7.3-3.5 5.2-2.4 21-17.6 21-20.1 0-.9 1-3.5 2.2-5.8 1.2-2.3 2.6-5 3.1-6.1 1.4-2.9 2-19.6.9-25.1-1.4-6.9-3.1-11.1-7.1-17.5-3.8-6.1-6.2-8.6-13.6-14.6-7-5.6-9.7-7.2-13.8-7.9-2-.4-4.1-1.3-4.8-2.1-1.3-1.6-7.5-1.9-8.4-.4-.8 1.4-5.1 1.3-9.1-.2-2.9-1-3.6-.9-5.4.7-1.1 1-3.4 1.8-5.1 1.7-1.8 0-3.8.7-5 1.9-2.8 2.8-5.8 2.3-9.4-1.6l-3.3-3.4-12.3-.4c-6.8-.2-14 .1-15.9.6zm74 7.2c.9.8 2.5 1.5 3.6 1.5 2 0 12.9 8.8 16.1 13 3.2 4.2 8.3 14.2 8.3 16.4 0 1.2.6 3.3 1.4 4.7 1.5 3 3 15.7 2 18.2-.6 1.8-3.4 2.4-3.4.8 0-.5-1.6-1.8-3.6-3-3.8-2.3-14.8-3-18.2-1.1-.9.5-3.5 1.7-5.7 2.7-4.2 1.8-9.5 5.3-21 13.9-6.2 4.6-7.7 5.2-13 5.7-11.3.9-16.7-4-16.9-15.2-.1-6.8.4-7.9 6.6-15.5.9-1.2 3.2-4.1 5.2-6.6 1.9-2.5 4.2-5.3 5.1-6.3.8-.9 1.5-2.5 1.5-3.5s.7-2.7 1.5-3.8c1.8-2.4 1.9-7.8.1-9.3-.8-.6-1.6-2.4-1.8-3.9-.3-1.5-.8-3.5-1.2-4.4-1-2.3 6.1-5.6 12.9-6 9.6-.7 18.7.1 20.5 1.7zm-35.2 14c.4 7.8 0 9.3-4.8 15.2-2.2 2.8-4 5.6-4 6.1 0 .6-.6 1.5-1.2 1.9-1.7 1.1-4.8 6.7-4.8 8.7 0 2.1-3.8 5.9-5 5.1-1.3-.8-1.3-6.1.1-10.5.5-1.9 1.2-4.9 1.3-6.5.7-5.6 5.8-17.3 10.3-23.3 1.9-2.5 3.1-3.2 5.1-3 2.5.3 2.7.6 3 6.3zM647.6 5c3.4 0 7.5 4 6.8 6.7-.9 3.2-3.2 3.6-6.9 1.3-6.3-3.9-14.3-1.8-26.5 6.9-11.9 8.5-16 10.5-25.3 12.1-4.1.8-5.6.6-9.3-1.2-2.4-1.2-4.7-3-5-4.1-.8-2.5 0-3.1 2.4-1.8 1.2.6 4.9 1.1 8.4 1.1 7.3 0 10.2-1.4 22.5-10.7 11.7-8.9 18.1-11.6 26.2-10.7 2.4.2 5.4.4 6.7.4zm.7 11.5c3.5.6 5 2.6 2.7 4-.5.3-1.7 2.1-2.5 3.9C645.9 29.9 633 41 629.3 41c-1 0-2.8.7-4.1 1.5-2.7 2-19.3 1.7-20-.3-.2-.8.7-1.2 2.6-1.2 4.4 0 9.9-2.8 17.9-9.3 4-3.1 7.6-5.7 8.1-5.7s1.5-.7 2.2-1.5c.8-1 3-1.5 6.1-1.5 4.8 0 7.2-1.3 4.3-2.4-5.9-2.3-12.4.2-25.4 9.8-6.8 5.1-11.2 7.2-17 8.4-5.4 1-12.5-.6-12.5-2.8 0-1.2 1.5-1.5 6.5-1.5 5.2-.1 7.9-.7 13-3.2 3.6-1.7 7.7-4.2 9.2-5.5 6.7-5.9 17.6-10.9 22.3-10.2 1.1.2 3.7.6 5.8.9zM340.5-55.8c-2.2 1.7-2.5 2.8-2.5 7.8 0 5.9 1.3 8.7 2.4 5.2.4-1 2.7-3.6 5.2-5.7l4.6-4 10.7.4c5.8.1 10.7.4 10.7.4.1.1.5 20.7.9 45.7l.7 45.5-2.6 2.9c-4.1 4.3-2.9 5.4 5.9 5.3 4.2 0 7.8-.4 8.1-.8.3-.5-.7-2.6-2.1-4.8l-2.6-3.9.3-44.8.3-44.9 11.3-.5 11.2-.5 6 5.3c3.2 2.9 6.1 4.8 6.5 4.2.9-1.5-.6-8-2.7-11.6l-1.8-3.1h-34.1c-32.1 0-34.1.1-36.4 1.9zM435-56.5c0 .9 1.5 2.3 3.4 3.2 1.9.9 4.3 3.1 5.3 5s2.8 4.1 4.1 4.9c1.2.8 2.2 2.1 2.2 2.8 0 .8.6 2.7 1.4 4.3a341 341 0 0 1 6.1 12.8c6.3 13.4 5.8 12.3 8.7 18 1.4 2.7 4.2 8.4 6.1 12.5 13.4 28.6 17.8 37 19.2 37 .9 0 1.8-.8 2.1-1.8.3-.9 1.2-2.9 2-4.4 2-3.7 1.8-5.3-1-6.6-1.4-.6-3.5-3.4-5.1-6.9C477.6-.9 473.2-10.1 471.1-14c-.4-.8-2.4-4.9-4.3-9-2-4.1-6.6-13.7-10.3-21.3L449.8-58h-7.4c-5.9 0-7.4.3-7.4 1.5zM759-56.9c0 .6 1.3 2.9 2.8 5.2l2.9 4.2-.5 45.4-.5 45.5-2.3 2.3c-1.3 1.3-2.4 2.8-2.4 3.3 0 1.1 17.3 1.4 18.3.3.4-.4-.4-1.8-1.7-3.2-2.4-2.5-2.5-3.1-2.8-19.8-.1-9.4 0-17.4.3-17.7.3-.4 4.8-.2 10 .4 10.5 1 23.4-.4 30.3-3.4 5.2-2.3 13.7-10.5 16.4-15.9 6.3-12.6 2.7-29.1-8.3-37.7-2.2-1.7-4.9-3.8-6-4.8-1.1-.9-3.6-1.7-5.6-1.8-2-.1-5-.9-6.7-1.8-2.5-1.3-6.8-1.6-23.7-1.6-13.9 0-20.5.3-20.5 1.1zm47.1 6.5c.8.8 2.2 1.4 3 1.4 2.5 0 10 7.6 12.1 12.1 7 15.3-.5 34.4-15.3 39.4-5.9 1.9-30.7 3.7-32.4 2.3-.5-.5-1-11.8-1.2-27.1-.1-14.4-.5-27.2-.8-28.4l-.5-2.2 16.7.6c12.1.4 17.2 1 18.4 1.9zM849-56.8c0 .7 1.1 2.3 2.5 3.8 3 3.2 2.9 1.3 2.7 53.2l-.2 42.6-2.6 3.2c-1.5 1.7-2.4 3.4-2.1 3.7.8.7 16.7.4 17.9-.4.6-.3-.3-1.8-1.8-3.4l-2.7-2.9-.4-21.2c-.2-11.7-.2-22.2.1-23.3.5-1.9 1.3-2 27.8-1.8l27.3.1.3 20.4c.3 22.6 0 26.2-2.9 28.6-3.9 3.3-2.4 4.2 6.9 4.2 4.9 0 9.2-.3 9.5-.6.4-.4-.7-2.2-2.3-4.1l-3-3.4V-2.6c0-46.4.2-48.8 4.3-52.3.9-.7 1.4-1.7 1.1-2.2-.7-1.2-18.1-1.2-18.8 0-.3.5.6 2.1 2 3.6s2.9 3.7 3.3 4.9c.5 1.1.7 10.9.5 21.6l-.3 19.5-28 .3L862-7v-41.9l2.5-2.7c1.4-1.5 2.5-3.5 2.5-4.5 0-1.7-.9-1.9-9-1.9-6.3 0-9 .4-9 1.2zM948.7-57.4c-.4.4.7 2.3 2.4 4.2 2.1 2.4 2.9 4.1 2.5 5.6-.3 1.1-.6 22.2-.6 46.9 0 43.5-.1 44.8-2 46.4-4.1 3.6-2.6 4 14.4 4.5 9.1.2 22.8.2 30.6 0l14.1-.5 1.4-3.5c1.6-3.6 2-9.4.8-10.5-.3-.4-2.2 1.1-4.1 3.3-5.3 6.2-7.9 6.9-27 7-9.2 0-17.3.1-18 0-1 0-1.2-5.2-1-24.3.3-23.6.4-24.2 2.3-23.9 1.1.2 7.4.5 14 .7 9.7.4 12.2.8 13.2 2.1 2.3 3.1 4.3.9 4.3-4.6 0-5.6-1.8-7.4-4.8-4.7-1.3 1.1-4.9 1.6-14.9 1.9-7.2.1-13.4 0-13.7-.3-1.2-1.2-1.4-44.8-.2-45.2.6-.2 9.6-.2 20-.1l18.9.3 4.9 4.3c2.8 2.4 5.5 4.5 6 4.7 1.3.4.3-7.9-1.4-12.2l-1-2.7h-30.3c-16.6 0-30.5.3-30.8.6zM1029.7-57.3c-.4.4.4 1.9 1.9 3.4l2.6 2.7-.1 47c-.1 25.9-.4 47.8-.7 48.6-.3.8-1.2 1.7-2 2-.8.3-1.4 1.2-1.4 2.1 0 1.2 1.6 1.5 8.9 1.5 5 0 9.2-.4 9.5-.8.3-.5-.8-2.2-2.4-3.7l-3-2.9V8.3l11.4.2c6.3.2 12 .6 12.6 1 .9.5 13.5 19 15 22 .3.5 3.1 4.9 6.2 9.6 5.6 8.5 5.8 8.6 10.4 9.2 8.9 1 11-1.3 4.6-5-3.2-1.8-12.2-12.9-12.2-14.9 0-.4-1.3-2.3-3-4.4-1.6-2.1-3-4.1-3-4.4 0-.4-1.8-3.1-4.1-6.1-4.9-6.5-4.8-8.6.3-9.7 7.5-1.5 15.5-8.4 20-17.1 1.6-3.2 2.2-6 2.2-12.2.1-7.2-.3-8.8-3.2-14.8-1.8-3.7-4.3-7.2-5.5-7.8-1.2-.7-3.2-2.1-4.4-3.3-5.3-5-6.4-5.6-10.2-5.6-2.1 0-5.2-.7-6.7-1.5-2.3-1.2-7.1-1.5-23-1.5-11 0-20.4.3-20.7.7zm49 7.4c4.8 2.1 10.5 7.5 13 12.2 2.1 4 2.9 17.7 1.4 23.3-1.7 6.3-7.1 12.6-13.7 16.1-5.8 3.1-6.3 3.1-20.9 3.4l-15 .3-.5-28.5c-.3-17.2-.2-28.7.4-29.1.5-.3 7.7-.4 16-.1 11.9.4 16 .9 19.3 2.4zM1124.4-56.9c-.4.7.6 2.3 2.5 3.8l3.1 2.6v92.4l-3.1 3.6c-1.8 2-3 3.7-2.8 3.9.8.7 41.7 1.2 51.9.7l10.4-.6.8-4c.5-2.2 1.3-4.4 1.8-4.9 1.3-1.3 1.3-5.6 0-5.6-.5 0-2.6 1.7-4.7 3.9-6.4 6.5-8 7-27 7.2-9.4.1-17.6-.2-18.2-.5-1.7-1.1-1.5-46 .2-47.4.9-.8 2.6-.8 5.7-.1 2.5.6 8 .9 12.2.7 6.8-.4 8-.2 10.5 1.8 1.5 1.2 3.1 2 3.5 1.7 1.2-.6 1-12.1-.2-12.8-.5-.3-2.2.3-3.7 1.4-2.4 1.6-4.9 2-15.5 2.3-8.3.3-12.9 0-13.1-.7-.1-.5-.1-10.9.1-23.1l.4-22 18.9.3c20.2.3 19.6.1 25.2 6 4.9 5.3 9.2 3.4 5.3-2.3-.8-1.1-1.8-3.6-2.3-5.5l-.9-3.4-30.1-.3c-22.2-.2-30.4.1-30.9.9zM527.4-45.5c-.3 1.3-1.2 2.9-2 3.6-.8.6-1.4 1.8-1.4 2.7 0 .8-2 5.5-4.5 10.4s-4.5 9.5-4.5 10.2c0 .8-.7 1.9-1.5 2.6-.8.7-1.5 2.5-1.5 4.1 0 1.5-.7 3.4-1.5 4.3-.8.8-1.5 2.1-1.5 2.8 0 .8-.7 2.3-1.5 3.4-.8 1-1.5 2.6-1.5 3.4 0 .8-.7 2.8-1.5 4.4-.8 1.5-1.5 3.6-1.5 4.6 0 1-.6 2.5-1.3 3.2-2.5 2.5-5.8 16.8-3.8 16.8 1.2 0 9.8-17.6 11.6-23.8.3-1.2 1.1-2.2 1.6-2.2s.9-1 .9-2.3c0-1.2.9-4 2-6.2s2-4.5 2-5.2c0-.7.5-1.3 1-1.3.6 0 1-.9 1-2.1 0-1.1.7-3.3 1.5-4.7 2.1-4 6.7-17.2 7.2-21.2.3-1.9 1.4-4.2 2.5-5 1.2-1 1.7-2.2 1.2-3.3-.9-2.4-2.3-2.1-3 .8z"/><path d="M443.6-39.5c-.5 1.1-1 19.3-1.2 40.5l-.4 38.5-3.1 2.8c-4.6 4.2-3.3 5.6 4.9 5.6 9.2 0 10.7-1.1 6.4-4.7l-3.3-2.7-.5-36.5c-.5-37.1-1.2-47.3-2.8-43.5zM1030 130.7c-.8.3-1.9 1.2-2.3 1.9-.4.8-1.3 1.4-1.9 1.4-2.9 0-7.6 5.2-10.3 11.5l-2.8 6.6 1.9 5.6c2.2 6.5 6.9 12.4 11.8 14.7 5.4 2.6 14.8 2.1 20.1-1 7.4-4.3 12.1-15 10.2-22.9-1.4-5.6-7.7-14.4-10.3-14.5-.6 0-1.7-.7-2.4-1.5-.9-1-2.8-1.5-5.4-1.4-2.3.1-4.8-.1-5.6-.4-.8-.3-2.2-.3-3 0zm8.6 4.8c1 .8 2.6 1.5 3.4 1.5 2.1.1 5.2 2.9 7.8 7.1 4.2 6.9 2.3 16.2-4.5 21.8-13.2 10.9-30.5-4.1-23.7-20.5 2.3-5.7 7.7-9.9 14.5-11.3.3 0 1.4.6 2.5 1.4zM838.8 131.8c-1 .2-1.8 1.1-1.8 1.9 0 1.3.9 1.5 4.9 1 4.9-.6 5-.6 5.7 2.6.3 1.7.5 10.6.3 19.7l-.4 16.5h6v-18c0-9.9.4-18.6.8-19.3.5-.7 2.9-1.2 5.8-1.2 3.9 0 4.9-.3 4.9-1.6 0-1.5-1-1.6-7.7-1.1-4.3.3-9.8.2-12.3-.2s-5.3-.5-6.2-.3zM870.6 132.9c-1.7 1.9-1.7 2.2 2.6 7.8 8.3 11.1 9 13.1 8.2 23.3l-.7 8.9 2.6.6c4.4 1.2 5 0 4.4-8.7-.5-6-.3-8.8.9-11.8.9-2.2 2-4 2.5-4s1.4-1.1 1.9-2.5c.5-1.3 2.1-4.3 3.5-6.5 2.6-4.1 3-8 1-8.7-1.3-.4-7.5 10.1-7.5 12.6 0 1.7-2.9 5.1-4.3 5.1-.3 0-2.3-2.8-4.3-6.3-2-3.4-3.9-6.4-4.3-6.7-.3-.3-1.1-1.4-1.7-2.4-1.5-2.8-2.8-2.9-4.8-.7zM706.3 133c-2.3.9-2.3 1.2-2.3 20.4 0 16.8.2 19.5 1.6 20 .9.3 5.8.6 11 .6 9.2 0 9.6-.1 12.3-2.9 5.1-5.2 4.9-11.6-.4-16.9-2.6-2.6-3.2-4.7-1.5-5.7.6-.3 1-2.5 1-4.9 0-4.6-2.7-8.1-8.3-10.4-3.2-1.4-10.2-1.5-13.4-.2zm14.4 5.7c4 4.6 4.1 6.4.6 10.3-2.1 2.1-3.9 3-6.8 3.2l-4 .3-.3-7.9c-.2-4.4 0-8.6.3-9.4 1-2.6 6.7-.6 10.2 3.5zm4.3 18.2c3.4 2.4 3.9 8 .9 10.7-1.6 1.5-3.6 1.9-8.8 1.9h-6.6l-.3-6.4c-.2-3.5-.1-7 .2-7.7.7-1.8 11.4-.7 14.6 1.5zM736.6 133.5c-1.1.9-1.2 4.4-.7 20.5l.6 19.5 10.3.3c8.5.2 10.3 0 10.8-1.3 1-2.5-.3-3-8.4-3h-7.7v-14l5-.1c7-.1 7.5-.2 7.5-1.9 0-1.2-1.3-1.5-6-1.5-7.2 0-7.6-.6-6.4-8.8l.9-5.7 8-.5c7.8-.5 8.1-.6 7.7-4-.2-1.4-19.7-.9-21.6.5zM934.5 133.2c-1.1.6-3.5 2.6-5.2 4.4-3 3-3.2 3.5-2.2 6.3.6 1.7 2.6 4.3 4.5 5.8 1.9 1.6 5 4.1 7 5.7 6.1 5.1 6.8 11.4 1.5 13.6-3.8 1.5-7.8.3-10.3-3.1-1.7-2.2-2.5-2.6-3.9-1.8-2.2 1.1-1.5 3.4 2 6.8 3.7 3.6 12.5 4.2 16.3 1.1 3.8-2.9 5.3-8.4 3.9-13.7-.9-3.4-2.3-5-8-9.2-7.7-5.8-8.4-6.8-6.7-10.2 1.5-3.2 6.1-3.8 7.6-1 1.1 2.1 5 2.9 5 1.1 0-1.7-3.4-5-5.2-5-.9 0-2-.5-2.3-1-.8-1.3-1.5-1.2-4 .2zM990.3 132.7c-1 .3-1.3 5.4-1.3 20.3 0 23-1.4 20.7 12.8 20.9 7.6.1 9.3-.1 9.8-1.4 1-2.5-.3-3-8.4-3h-7.7l-.3-18c-.3-19.1-.7-20.6-4.9-18.8zM1061 134.2c0 3.9 2 9.8 3.4 9.8.7 0 2.2 1 3.3 2.2 2.7 3.1 12.4 17.3 15.3 22.5 2.3 4.2 5 6 7 4.8.6-.4 1-8.2 1-20.6 0-19.3-.1-19.9-2-19.9-1.1 0-2.3.7-2.7 1.6-.3.8-.1 7.4.6 14.6.6 7.2.8 13.4.5 13.7-.9.9-5.3-4.7-11.5-14.5-8.9-14.3-14.9-19.9-14.9-14.2zM775.1 137c-1.2 2.2-2.1 4.9-2.1 5.9s-.7 2.4-1.5 3.1c-.8.7-1.5 2.1-1.5 3.2s-.7 3.2-1.5 4.6c-.8 1.5-2.4 4.9-3.5 7.7-1.1 2.7-2.5 5.8-3 6.7-2.2 4-.5 6.7 3 4.8 1.3-.7 2-2.1 2-4 0-1.6.6-3.5 1.4-4.2.7-.8 1.6-2.5 2-3.8.4-1.4 1.1-3.4 1.6-4.5.7-1.8 3.4-9.6 4.6-13.4.7-2.2 4.2 3.1 5.4 8.2.9 4.4 1.7 6.5 4.6 13.4.8 1.7 1.4 3.8 1.4 4.5 0 1.9 3.2 4.8 5.3 4.8 2.8 0 2.9-1.8.3-7.7-5.4-12.8-8.6-21.3-8.6-23.1 0-1.1-.7-2.5-1.5-3.2-.8-.7-1.5-1.8-1.5-2.5 0-1.2-3.1-4.5-4.2-4.5-.3 0-1.5 1.8-2.7 4zM798.2 134.3c-1.1 1.3-.1 21.5 1.4 28.4.9 4.3 6.8 10.1 11.1 10.9 6.5 1.2 12.1-.1 15.4-3.6 5.4-5.6 6.8-10.2 7-23.5.1-11.4.1-11.9-2.1-12.7-1.2-.5-3-.4-4.1.3-1.9 1-2 1.8-1.3 13.2.8 16.1-.9 20.6-8.3 22.2-4.2.8-10.1-1.9-11.5-5.4-.6-1.6-.8-7.8-.4-16.3.5-11.7.3-13.7-1-14.2-2.5-1-5.1-.7-6.2.7zM966.6 135.5c-.9 1.3-1.6 3.3-1.6 4.3 0 1.1-.7 2.5-1.5 3.2-.8.7-1.5 2.1-1.5 3.2 0 1-.7 2.1-1.5 2.4-.9.4-1.5 1.9-1.5 3.9 0 1.8-.7 3.8-1.5 4.5-.8.7-1.5 2.2-1.5 3.4 0 1.2-.5 2.7-1.2 3.4-1.4 1.4-3.7 8-3 8.7.3.3 1.3.5 2.2.5 1.6 0 5-6.2 5-9.1 0-.8.6-2.3 1.3-3.4 1.1-1.6 3.8-9.4 5.3-15.3.5-2 3.4-1.4 4.3 1 .5 1.3 2.3 6.1 4.1 10.8 5.5 14.9 6.3 16.4 8.1 16.7.8.2 2.1-.1 2.9-.6 1.1-.8 1.2-1.4.2-3.3-.6-1.3-2.8-6.6-4.7-11.8-2-5.1-4-9.9-4.5-10.5-.5-.6-1.2-3-1.6-5.3-.3-2.3-1.3-4.7-2-5.3-.8-.6-1.4-1.8-1.4-2.5 0-2.3-2.6-1.6-4.4 1.1zM1062.6 153.2c-.3 2.4-.8 7.5-1.1 11.5-.5 6.5-.3 7.3 1.5 8.3 3.7 2 4.3.4 3.7-10.4-.6-10.3-1.3-13.6-2.7-13.6-.5 0-1.1 1.9-1.4 4.2zM594.3 155.7c-6.3.6-5.7 3 1 3.8 9.2 1.1 75 .1 75.4-1.1.2-.6-.4-1.5-1.4-1.9-2-.8-68.4-1.5-75-.8z"/></svg>