<?xml version="1.0" standalone="no"?>
<!DOCTYPE svg PUBLIC "-//W3C//DTD SVG 20010904//EN"
 "http://www.w3.org/TR/2001/REC-SVG-20010904/DTD/svg10.dtd">
<svg version="1.0" xmlns="http://www.w3.org/2000/svg"
 width="900.000000pt" height="663.000000pt" viewBox="0 0 900.000000 663.000000"
 preserveAspectRatio="xMidYMid meet">
<metadata>
Created by potrace 1.10, written by Peter Selinger 2001-2011
</metadata>
<g transform="translate(0.000000,663.000000) scale(0.100000,-0.100000)"
fill="#d56e2a" stroke="none">
<path d="M826 4257 c-9 -37 -2 -2060 7 -2075 7 -10 286 -12 1400 -12 766 1
1417 -2 1448 -6 32 -4 79 -1 110 5 35 8 160 13 349 13 162 0 306 3 320 7 53
15 -55 23 -289 20 -176 -2 -236 0 -239 9 -2 7 1 12 7 12 16 0 84 64 115 108
48 70 68 138 69 237 0 80 -3 97 -31 158 -19 42 -49 85 -80 115 -50 49 -63 57
-147 92 -27 11 -58 25 -69 31 -10 6 -58 13 -107 16 l-89 6 0 282 c0 220 3 285
13 300 13 17 103 38 152 35 11 0 38 -2 59 -3 25 -1 43 -8 50 -20 9 -15 4 -24
-32 -55 -23 -20 -42 -42 -42 -47 0 -6 -12 -27 -26 -48 -29 -44 -36 -74 -36
-171 0 -125 81 -241 211 -302 47 -23 72 -27 151 -29 68 -2 101 1 115 11 11 8
26 14 35 14 27 0 118 102 151 169 29 58 32 73 32 150 -1 66 -6 97 -23 135 -27
59 -31 65 -91 125 -52 52 -100 81 -134 81 -12 0 -28 7 -35 15 -19 23 -112 20
-134 -4 -10 -11 -25 -17 -37 -14 -12 3 -25 -1 -32 -11 -11 -14 -18 -15 -42 -6
-17 6 -38 21 -47 33 -13 17 -20 19 -28 11 -7 -7 -28 -10 -51 -7 -21 3 -59 0
-84 -7 -40 -11 -48 -11 -63 4 -22 19 -73 21 -90 4 -7 -7 -12 -24 -12 -39 0
-15 -4 -31 -10 -34 -5 -3 -10 -16 -10 -28 1 -20 2 -21 14 -4 18 24 26 21 26
-8 0 -14 -3 -25 -7 -25 -5 0 -8 -116 -8 -257 l0 -258 -45 -2 c-25 -1 -70 -11
-100 -23 -30 -12 -71 -25 -90 -30 -46 -10 -142 -41 -155 -50 -5 -4 -21 -11
-35 -15 -20 -6 -244 -115 -338 -164 -58 -31 -149 -71 -161 -71 -7 0 -25 -6
-39 -14 -42 -22 -99 -43 -202 -74 -209 -64 -291 -76 -458 -68 -103 5 -139 12
-227 41 -156 53 -229 97 -336 205 -111 112 -164 251 -156 404 6 105 20 174 47
226 27 52 109 136 153 156 17 8 39 18 47 23 52 30 125 51 141 40 8 -5 35 -8
61 -7 26 1 50 -1 54 -5 3 -3 18 -4 33 -1 18 4 49 -6 101 -32 151 -75 172 -99
219 -234 24 -68 27 -75 60 -152 12 -26 21 -53 21 -60 0 -8 4 -18 9 -23 5 -6
16 -34 26 -63 l17 -53 -26 -39 c-14 -22 -26 -44 -26 -49 0 -5 48 -10 110 -10
121 0 131 6 84 50 -37 34 -68 85 -88 148 -9 30 -46 127 -82 217 -35 89 -64
171 -64 182 0 11 -6 25 -14 31 -8 7 -18 26 -21 42 -4 17 -13 42 -21 57 -8 15
-14 36 -14 48 0 11 -5 25 -12 32 -6 6 -17 26 -24 44 -6 18 -23 60 -36 93 -14
33 -23 66 -20 73 2 7 -1 18 -6 25 -6 7 -13 29 -17 49 -4 20 -14 39 -23 43 -21
8 -49 -28 -57 -74 -4 -19 -13 -44 -21 -55 -8 -11 -14 -28 -14 -37 0 -9 -7 -22
-15 -29 -8 -7 -15 -23 -15 -35 0 -12 -7 -28 -15 -35 -9 -7 -14 -19 -11 -27 3
-7 2 -23 -3 -35 -8 -21 -13 -22 -132 -23 -101 0 -129 -4 -149 -18 -13 -9 -32
-17 -42 -17 -69 0 -278 -231 -278 -307 0 -11 -4 -23 -10 -29 -30 -30 -33 -311
-4 -383 8 -18 14 -41 14 -50 0 -42 93 -186 157 -244 85 -77 109 -97 117 -97 5
0 17 -6 25 -14 26 -22 129 -76 146 -76 9 0 26 -6 38 -13 42 -25 274 -67 372
-67 86 0 315 38 375 62 14 6 39 14 55 18 31 9 185 63 220 78 95 42 173 78 185
87 8 6 35 21 60 33 25 13 59 31 75 41 28 16 156 86 201 109 70 35 162 73 239
98 82 27 101 29 240 29 135 0 154 -3 190 -22 22 -12 54 -28 71 -36 78 -37 140
-158 138 -272 -2 -133 -72 -245 -184 -297 -45 -20 -51 -20 -1245 -18 -1475 3
-1699 5 -1712 13 -7 5 -11 308 -12 969 -1 530 -5 974 -8 987 -5 21 -3 23 13
17 19 -8 6102 -9 6364 -2 176 5 871 8 875 4 1 -2 6 -449 9 -994 7 -890 6 -992
-8 -997 -9 -4 -138 -7 -288 -8 -150 -1 -282 -5 -293 -9 -39 -15 87 -21 360
-18 l270 3 3 1026 c2 874 0 1028 -12 1045 -14 19 -61 19 -3674 22 l-3659 4 -7
-25z m1022 -439 c7 -7 12 -22 12 -34 0 -12 6 -35 14 -51 8 -15 21 -44 29 -63
8 -19 27 -59 41 -88 40 -82 30 -105 -24 -61 -48 38 -100 69 -118 69 -10 0 -23
5 -30 12 -14 14 -16 64 -3 73 15 9 41 66 41 89 0 29 11 66 19 66 4 0 12 -5 19
-12z m2302 -232 c18 -9 38 -16 44 -16 18 0 111 -101 128 -140 41 -90 48 -114
48 -154 0 -51 -19 -65 -46 -35 -13 15 -30 19 -76 19 -32 0 -58 -4 -58 -8 0 -5
-18 -16 -40 -26 -22 -10 -46 -23 -53 -29 -6 -7 -33 -30 -59 -50 -42 -34 -53
-39 -108 -40 -61 -2 -62 -2 -80 33 -43 82 -59 197 -36 246 9 18 24 50 34 70 9
21 27 48 39 62 l22 24 17 -36 c19 -40 15 -56 -36 -126 -45 -63 -63 -101 -52
-112 7 -7 12 -3 16 10 4 11 13 23 21 26 8 3 15 11 15 18 0 7 14 26 30 42 17
16 30 35 30 41 0 7 7 18 15 25 21 17 19 57 -5 88 l-21 25 27 28 c15 15 36 30
48 33 36 8 102 -1 136 -18z m188 -382 c41 -27 21 -39 -56 -36 -68 4 -73 2
-119 -32 -26 -20 -53 -40 -60 -46 -7 -5 -15 -10 -19 -10 -3 0 -17 -9 -31 -20
-14 -11 -35 -20 -47 -20 -17 0 -18 -2 -6 -10 24 -15 70 -12 70 5 0 8 9 15 19
15 11 0 35 14 53 30 18 17 38 30 44 30 7 0 14 5 16 12 5 14 119 29 132 17 6
-5 3 -16 -7 -27 -9 -10 -17 -25 -17 -33 0 -15 -22 -36 -87 -87 -56 -43 -125
-54 -154 -23 -14 15 -32 21 -64 21 -36 0 -48 5 -60 23 -8 13 -26 29 -40 35
-41 19 -31 36 16 28 46 -7 108 15 167 63 76 59 144 90 187 85 22 -3 50 -12 63
-20z"/>
<path d="M4210 3090 c0 -5 -9 -10 -20 -10 -11 0 -23 -7 -26 -15 -4 -8 -15 -15
-25 -15 -10 0 -19 -6 -19 -14 0 -7 -9 -16 -20 -19 -25 -6 -27 -27 -2 -27 20 1
62 33 62 49 0 6 4 11 10 11 5 0 26 11 46 25 31 21 33 25 15 25 -11 0 -21 -4
-21 -10z"/>
<path d="M2912 3643 c-10 -4 -9 -11 5 -31 16 -25 18 -52 15 -327 -3 -248 -6
-304 -19 -324 -13 -20 -13 -25 -2 -32 19 -12 66 -11 90 2 20 10 20 11 2 31
-16 18 -19 46 -24 232 -4 116 -12 239 -18 274 -7 34 -9 67 -6 72 10 16 25 12
32 -7 3 -10 18 -45 33 -78 227 -485 247 -521 271 -484 23 35 21 59 -5 84 -14
13 -26 29 -26 34 0 22 -243 517 -267 543 -15 17 -53 22 -81 11z"/>
<path d="M4601 3628 c-6 -10 -18 -18 -26 -18 -18 0 -85 -113 -85 -144 0 -12 7
-31 15 -42 8 -10 15 -26 15 -36 0 -28 82 -90 186 -142 55 -28 114 -61 133 -75
34 -26 61 -74 61 -109 0 -29 -62 -91 -98 -98 -18 -4 -35 -11 -38 -15 -7 -12
-91 -11 -99 1 -3 6 -14 10 -23 10 -18 0 -26 4 -129 68 -38 23 -80 42 -94 42
-22 0 -21 -3 20 -40 49 -45 151 -110 173 -110 8 0 20 -6 27 -12 15 -16 143
-17 162 -2 8 6 25 14 39 17 37 9 86 62 106 113 22 58 9 104 -45 166 -39 43
-146 117 -173 119 -7 0 -40 17 -73 37 -46 29 -65 48 -82 84 l-23 46 20 45 c24
54 43 71 69 62 12 -3 31 1 46 11 20 13 29 14 38 5 6 -6 27 -11 47 -11 24 0 43
-7 55 -20 10 -11 24 -20 31 -20 7 0 19 -12 26 -27 14 -28 43 -51 53 -41 9 8 9
84 1 97 -4 6 -21 11 -37 11 -31 0 -69 15 -80 32 -4 6 -52 11 -107 11 -86 2
-102 -1 -111 -15z"/>
<path d="M5074 3638 c-2 -4 0 -26 6 -50 5 -24 9 -171 9 -328 0 -229 -3 -290
-14 -310 -8 -14 -14 -28 -15 -32 0 -5 27 -8 60 -8 64 0 72 8 46 46 -12 17 -14
76 -13 340 l2 319 60 -3 c96 -4 186 -37 220 -79 37 -47 56 -104 48 -145 -18
-95 -81 -155 -174 -164 -64 -7 -119 -22 -119 -34 0 -18 153 -29 164 -11 3 5
17 12 32 15 44 11 103 54 128 94 66 105 57 180 -33 274 -47 49 -61 58 -91 58
-20 0 -46 7 -58 16 -19 13 -45 15 -138 12 -64 -1 -118 -6 -120 -10z"/>
<path d="M5667 3643 c-4 -3 -1 -15 6 -27 8 -15 13 -109 15 -320 3 -252 1 -304
-12 -337 -9 -22 -16 -42 -16 -44 0 -3 25 -5 56 -5 l56 0 -7 28 c-5 15 -10 160
-12 322 -3 264 -1 298 14 327 11 21 14 36 8 42 -12 10 -100 23 -108 14z"/>
<path d="M6128 3643 c-43 -5 -56 -28 -31 -55 14 -16 16 -38 14 -156 -1 -75 -3
-213 -5 -307 -1 -93 -6 -180 -10 -192 -8 -22 -6 -23 49 -23 55 0 57 1 49 23
-9 23 -12 605 -4 672 6 44 3 45 -62 38z"/>
<path d="M6333 3633 c-3 -6 0 -20 6 -32 15 -28 15 -607 0 -650 -6 -18 -9 -34
-6 -37 3 -3 86 -8 185 -11 211 -7 227 -3 234 66 3 37 2 40 -17 35 -11 -4 -22
-11 -23 -15 -8 -20 -51 -32 -146 -40 -56 -4 -111 -11 -122 -14 -18 -6 -22 -2
-27 27 -9 47 -8 647 1 650 4 2 55 2 114 0 93 -3 109 -6 130 -25 23 -22 71 -47
87 -47 12 0 -16 92 -32 102 -19 14 -379 5 -384 -9z"/>
<path d="M6918 3643 c-43 -4 -48 -7 -48 -28 0 -13 5 -27 10 -30 15 -9 13 -589
-2 -632 -6 -18 -10 -34 -7 -37 2 -2 26 -6 54 -7 42 -3 50 -1 53 14 2 10 -3 26
-12 35 -13 15 -15 62 -13 337 l2 320 60 -3 c60 -3 156 -21 165 -32 3 -3 17
-11 32 -17 41 -18 70 -85 71 -159 1 -52 -4 -69 -26 -103 -15 -23 -34 -41 -42
-41 -8 0 -18 -6 -22 -13 -9 -16 -80 -37 -142 -42 -62 -6 -78 -25 -20 -25 78 0
84 -5 171 -137 50 -77 91 -128 106 -134 61 -23 82 2 38 46 -13 13 -34 38 -47
57 -13 18 -27 38 -31 43 -23 29 -90 136 -87 139 2 1 23 10 46 20 48 21 113 81
113 105 0 9 7 25 15 35 55 73 -67 266 -169 266 -12 0 -31 7 -42 15 -19 14
-105 17 -226 8z"/>
<path d="M7548 3643 c-27 -2 -48 -5 -48 -6 0 -1 5 -18 11 -37 15 -48 12 -604
-3 -647 -7 -18 -9 -35 -6 -38 3 -3 86 -8 184 -12 198 -7 212 -4 238 49 14 27
14 34 3 45 -14 14 -47 8 -47 -8 0 -19 -48 -32 -144 -40 -56 -5 -110 -10 -121
-11 -20 -3 -20 3 -22 341 l-3 343 23 -6 c12 -3 59 -6 103 -6 77 0 85 -2 135
-35 29 -20 58 -34 66 -31 22 9 28 38 10 51 -10 7 -17 17 -17 23 0 25 -43 32
-177 30 -76 -1 -159 -3 -185 -5z"/>
<path d="M2262 3620 c-25 -24 -29 -68 -7 -76 8 -4 30 5 48 18 38 28 80 46 121
50 16 2 31 9 34 16 3 9 -19 12 -85 12 -76 0 -92 -3 -111 -20z"/>
<path d="M2515 3633 l-41 -4 0 -319 c0 -252 -4 -325 -14 -346 -12 -22 -12 -27
0 -34 20 -13 67 -12 91 1 19 10 19 12 5 28 -14 16 -16 56 -14 337 l3 319 35
-3 c47 -3 110 -23 110 -34 0 -11 70 -41 78 -33 3 3 -1 25 -9 48 l-16 42 -94 1
c-52 0 -112 -1 -134 -3z"/>
<path d="M1682 3528 c-7 -7 -12 -17 -12 -24 0 -6 -7 -17 -15 -24 -8 -7 -15
-22 -15 -34 0 -12 -7 -31 -15 -42 -8 -10 -15 -25 -15 -31 0 -7 -13 -42 -30
-76 -16 -35 -30 -73 -30 -84 0 -11 -7 -26 -15 -33 -8 -7 -15 -24 -15 -39 0
-15 -6 -35 -14 -46 -7 -11 -24 -51 -36 -89 -17 -49 -35 -79 -63 -107 -22 -20
-36 -42 -33 -48 9 -14 192 -15 201 -1 3 5 -10 24 -29 42 -19 18 -36 40 -37 48
-4 25 13 94 26 110 8 8 17 28 21 43 3 16 17 51 30 78 13 27 24 54 24 59 0 6 9
32 21 58 11 26 24 56 29 67 5 11 16 43 25 70 9 28 21 58 26 67 20 40 0 65 -29
36z"/>
<path d="M3481 3477 c0 -9 -10 -25 -21 -34 -11 -10 -20 -23 -20 -29 0 -7 -8
-27 -17 -46 -9 -18 -22 -45 -30 -60 -7 -14 -13 -35 -13 -46 0 -11 -7 -25 -15
-32 -8 -7 -15 -22 -15 -34 0 -11 -7 -34 -15 -50 -18 -35 -20 -79 -2 -74 6 3
13 14 15 26 2 11 10 26 18 32 8 7 14 19 14 26 0 8 14 40 30 71 17 31 30 64 30
74 0 10 5 21 10 24 6 3 10 15 10 27 0 11 7 35 16 53 8 18 14 46 11 62 -2 15
-5 20 -6 10z"/>
<path d="M6590 3309 c-25 -10 -63 -18 -85 -19 -51 -1 -77 -15 -43 -23 12 -4
46 -7 74 -7 28 0 59 -6 70 -15 33 -25 44 -18 44 29 0 25 -3 47 -7 49 -5 3 -28
-3 -53 -14z"/>
<path d="M7750 3305 c-8 -10 -31 -15 -64 -15 -64 0 -91 -14 -46 -24 18 -3 49
-6 69 -6 20 0 49 -7 65 -15 42 -22 46 -19 46 30 0 43 -1 45 -29 45 -16 0 -34
-7 -41 -15z"/>
<path d="M5808 3294 c-31 -9 -19 -23 26 -29 54 -9 222 -3 232 8 4 4 4 10 0 15
-9 8 -232 13 -258 6z"/>
<path d="M6240 2372 c0 -9 25 -33 48 -46 25 -15 11 14 -18 34 -16 12 -30 17
-30 12z"/>
<path d="M6853 2368 c-2 -5 -12 -8 -22 -8 -9 0 -26 -12 -37 -27 -29 -41 -55
-111 -44 -118 6 -3 10 -15 10 -26 0 -28 67 -97 105 -108 52 -14 102 2 141 46
31 35 34 43 34 101 0 61 -1 64 -44 106 -40 39 -49 43 -91 42 -26 -1 -49 -4
-52 -8z m76 -38 c33 0 39 -4 54 -35 26 -55 22 -99 -14 -140 -25 -28 -38 -35
-68 -35 -44 0 -53 6 -80 50 -25 41 -27 82 -6 100 8 7 15 21 15 31 0 21 29 41
48 34 8 -3 30 -5 51 -5z"/>
<path d="M4701 2356 c-8 -9 -11 -56 -9 -142 l3 -129 69 -3 c60 -3 72 0 92 19
32 30 33 90 2 111 -20 13 -21 17 -9 45 14 34 7 55 -28 87 -26 24 -41 13 -18
-12 23 -25 21 -61 -4 -89 -21 -22 -21 -23 -3 -29 27 -10 54 -35 54 -50 0 -24
-31 -44 -71 -44 l-39 0 -1 73 c-1 39 -2 96 -3 125 0 53 -12 66 -35 38z"/>
<path d="M4918 2353 c-14 -15 -16 -39 -14 -140 1 -67 4 -124 7 -127 8 -9 123
-8 164 1 35 7 40 12 47 48 5 22 13 44 18 49 6 6 10 20 10 33 0 18 25 43 43 43
3 0 15 -33 27 -72 24 -76 44 -108 67 -108 17 0 17 44 -1 78 -24 48 -46 102
-46 117 0 16 -42 84 -52 85 -20 1 -39 -34 -33 -61 4 -19 3 -29 -5 -29 -6 0
-18 -15 -26 -32 -8 -18 -18 -40 -23 -48 -5 -8 -13 -28 -18 -45 -8 -29 -11 -30
-67 -30 -70 0 -72 3 -72 125 l1 85 55 5 c40 4 55 9 55 20 0 24 -116 27 -137 3z"/>
<path d="M5805 2349 c-5 -14 4 -37 29 -75 33 -49 36 -60 36 -125 l0 -70 28 3
c27 3 27 3 30 91 3 84 2 87 -22 98 -13 7 -35 31 -48 55 -25 48 -43 56 -53 23z"/>
<path d="M6597 2363 c-10 -15 -11 -263 -1 -273 5 -5 38 -10 74 -12 59 -3 65
-1 65 17 0 17 -8 20 -53 23 l-53 3 2 110 c2 88 -1 113 -13 125 -9 9 -18 12
-21 7z"/>
<path d="M7079 2363 c0 -4 -2 -68 -3 -140 -3 -122 -2 -133 15 -133 24 0 26 11
15 91 -5 38 -7 72 -3 75 10 10 43 -23 65 -65 55 -103 67 -116 97 -105 12 5 15
30 15 139 0 74 -4 136 -9 140 -20 12 -29 -33 -24 -113 4 -53 2 -82 -4 -82 -11
0 -103 130 -115 162 -7 18 -48 44 -49 31z"/>
<path d="M5313 2344 c-3 -8 -1 -58 5 -111 12 -103 24 -126 77 -148 44 -19 80
-8 120 36 35 39 35 39 35 134 0 78 -3 97 -16 102 -25 9 -34 -16 -34 -99 0 -97
-20 -138 -66 -138 -49 0 -68 37 -70 137 -2 46 -5 87 -9 93 -9 15 -35 12 -42
-6z"/>
<path d="M5655 2344 c-17 -13 -19 -26 -18 -129 1 -63 4 -119 8 -125 9 -14 42
-13 48 3 7 17 -4 250 -12 259 -3 4 -15 0 -26 -8z"/>
<path d="M5952 2340 c-6 -11 -12 -32 -12 -47 l0 -28 25 30 c25 30 29 55 10 62
-6 2 -16 -6 -23 -17z"/>
<path d="M6432 2333 c-12 -15 -22 -39 -22 -54 0 -15 -7 -32 -15 -39 -8 -7 -15
-18 -15 -25 0 -7 -9 -32 -20 -56 -25 -55 -25 -69 -1 -69 13 0 20 9 24 28 3 15
16 56 29 92 26 67 51 85 56 40 2 -14 7 -34 12 -45 5 -11 19 -44 31 -73 15 -37
27 -52 38 -50 21 5 18 51 -9 103 -11 21 -20 45 -20 52 0 7 -4 21 -9 31 -5 9
-16 34 -25 55 -8 20 -19 37 -24 37 -5 0 -18 -12 -30 -27z"/>
<path d="M6193 2340 c-16 -7 -23 -18 -23 -38 0 -22 12 -39 55 -76 73 -62 74
-106 4 -106 -11 0 -22 7 -25 15 -7 16 -39 20 -48 6 -4 -5 8 -21 25 -35 41 -35
75 -37 115 -8 19 14 23 26 24 69 0 50 -2 53 -44 83 -42 31 -64 69 -51 90 7 12
-2 12 -32 0z"/>
</g>
</svg>
