<?xml version="1.0" encoding="UTF-8"?>
<!DOCTYPE svg PUBLIC "-//W3C//DTD SVG 1.1//EN" "http://www.w3.org/Graphics/SVG/1.1/DTD/svg11.dtd">
<svg xmlns="http://www.w3.org/2000/svg" version="1.1" width="500px" height="393px" style="shape-rendering:geometricPrecision; text-rendering:geometricPrecision; image-rendering:optimizeQuality; fill-rule:evenodd; clip-rule:evenodd" xmlns:xlink="http://www.w3.org/1999/xlink">
<g><path style="opacity:1" fill="#000000" d="M -0.5,-0.5 C 166.167,-0.5 332.833,-0.5 499.5,-0.5C 499.5,130.5 499.5,261.5 499.5,392.5C 332.833,392.5 166.167,392.5 -0.5,392.5C -0.5,261.5 -0.5,130.5 -0.5,-0.5 Z"/></g>
<g><path style="opacity:1" fill="#090200" d="M 210.5,43.5 C 209.833,43.5 209.5,43.1667 209.5,42.5C 222.096,36.5351 234.429,30.0351 246.5,23C 248.167,22.3333 249.833,22.3333 251.5,23C 255.833,25.3333 260.167,27.6667 264.5,30C 246.402,34.1911 228.402,38.6911 210.5,43.5 Z"/></g>
<g><path style="opacity:1" fill="#5b401f" d="M 313.5,51.5 C 315.148,53.8722 314.481,55.2056 311.5,55.5C 296.879,47.3537 282.046,39.687 267,32.5C 247.023,36.5792 227.19,41.2458 207.5,46.5C 208.1,45.1001 209.1,44.1001 210.5,43.5C 228.402,38.6911 246.402,34.1911 264.5,30C 260.167,27.6667 255.833,25.3333 251.5,23C 249.833,22.3333 248.167,22.3333 246.5,23C 234.429,30.0351 222.096,36.5351 209.5,42.5C 208.833,42.5 208.167,42.5 207.5,42.5C 220.942,34.2466 234.776,26.58 249,19.5C 254.624,22.1483 260.124,24.9817 265.5,28C 271.351,28.553 277.018,27.7196 282.5,25.5C 292.853,34.1896 303.186,42.8563 313.5,51.5 Z"/></g>
<g><path style="opacity:1" fill="#0c0300" d="M 279.5,28.5 C 280.873,28.3433 282.207,28.51 283.5,29C 291.354,35.4307 299.02,42.0973 306.5,49C 294.573,43.8676 282.906,37.8676 271.5,31C 274.379,30.454 277.046,29.6206 279.5,28.5 Z"/></g>
<g><path style="opacity:1" fill="#010000" d="M 311.5,55.5 C 324.312,63.6282 336.312,72.9615 347.5,83.5C 355.5,90.6645 363.667,97.6645 372,104.5C 371.275,107.819 371.442,111.152 372.5,114.5C 368.711,119.645 368.544,124.978 372,130.5C 374.436,133.447 377.269,135.78 380.5,137.5C 382.213,138.223 383.213,139.557 383.5,141.5C 384.771,146.115 385.271,150.781 385,155.5C 382.808,153.765 380.308,152.598 377.5,152C 373.514,151.501 369.514,151.334 365.5,151.5C 365.393,153.903 366.393,155.736 368.5,157C 374.523,162.176 381.523,164.843 389.5,165C 390.399,166.652 391.399,168.152 392.5,169.5C 394.065,172.19 394.731,175.19 394.5,178.5C 393.908,186.899 392.908,195.232 391.5,203.5C 387.275,222.052 381.941,240.385 375.5,258.5C 369.201,273.099 361.868,287.099 353.5,300.5C 351.248,303.932 348.748,307.266 346,310.5C 347.371,296.671 349.871,283.004 353.5,269.5C 362.887,265.787 369.387,259.12 373,249.5C 373.991,247.553 374.325,245.553 374,243.5C 367.041,248.125 361.041,253.792 356,260.5C 355.299,257.072 355.632,253.738 357,250.5C 360.75,247.256 363.917,243.589 366.5,239.5C 368.863,236.121 370.863,232.455 372.5,228.5C 383.141,222.549 387.308,213.549 385,201.5C 382.938,198.908 381.605,195.908 381,192.5C 377.667,188.5 374.333,188.5 371,192.5C 369.963,197.3 367.63,201.3 364,204.5C 363.333,208.167 363.333,211.833 364,215.5C 365.912,219.66 368.079,223.66 370.5,227.5C 369.093,231.312 367.426,234.978 365.5,238.5C 363.233,241.271 360.733,243.938 358,246.5C 358.707,234.371 356.874,222.704 352.5,211.5C 355.982,209.252 359.316,206.752 362.5,204C 358.883,205.071 355.55,206.904 352.5,209.5C 351.675,205.353 351.175,201.019 351,196.5C 349.64,193.265 347.473,190.765 344.5,189C 339.913,188.743 335.247,188.41 330.5,188C 329.667,188.833 328.833,189.667 328,190.5C 327.502,193.817 327.335,197.15 327.5,200.5C 326.058,201.82 325.392,203.486 325.5,205.5C 321.589,208.287 317.255,210.287 312.5,211.5C 311.5,211.167 310.5,210.833 309.5,210.5C 312.027,208.395 314.36,206.061 316.5,203.5C 316,202.119 315,201.453 313.5,201.5C 309.666,203.169 307,206.002 305.5,210C 304.552,210.483 303.552,210.649 302.5,210.5C 303.054,207.438 303.554,204.438 304,201.5C 302.67,202.582 301.17,203.249 299.5,203.5C 300.833,202.167 302.167,200.833 303.5,199.5C 309.101,196.564 313.767,192.564 317.5,187.5C 321.795,184.702 324.795,180.869 326.5,176C 323.526,171.564 320.526,171.731 317.5,176.5C 313.598,178.893 310.098,181.893 307,185.5C 303.204,189.449 300.037,193.783 297.5,198.5C 294.112,202.249 290.945,206.249 288,210.5C 287.251,211.635 287.417,212.635 288.5,213.5C 291.833,211.167 295.167,208.833 298.5,206.5C 298.551,212.067 301.051,213.734 306,211.5C 307.864,214.207 310.364,215.041 313.5,214C 318.549,212.15 322.883,209.316 326.5,205.5C 327.5,205.5 328.5,205.5 329.5,205.5C 325.374,213.709 327.707,216.376 336.5,213.5C 339.936,214.782 343.269,214.782 346.5,213.5C 347.167,213.5 347.833,213.5 348.5,213.5C 349.496,213.414 350.329,213.748 351,214.5C 353.742,219.886 355.076,225.553 355,231.5C 350.629,225.815 344.962,222.149 338,220.5C 337.308,221.025 336.808,221.692 336.5,222.5C 340.833,230.167 346.833,236.167 354.5,240.5C 354.833,241.667 355.167,242.833 355.5,244C 354.219,252.187 352.885,260.354 351.5,268.5C 350.359,272.377 349.192,276.377 348,280.5C 345.249,273.58 340.415,268.914 333.5,266.5C 334.922,275.676 338.755,283.676 345,290.5C 344.629,298.197 343.796,305.864 342.5,313.5C 312.424,330.201 282.424,346.867 252.5,363.5C 249.393,363.649 246.393,363.149 243.5,362C 238.505,359.169 233.505,356.335 228.5,353.5C 203.621,339.894 178.621,326.561 153.5,313.5C 143.86,307.342 133.86,301.676 123.5,296.5C 113.994,274.163 103.994,252.163 93.5,230.5C 93.6882,228.897 93.1882,227.563 92,226.5C 91.181,208.093 91.3476,189.76 92.5,171.5C 103.891,147.042 115.058,122.376 126,97.5C 128.008,92.809 130.508,88.4757 133.5,84.5C 155.946,72.5577 178.279,60.391 200.5,48C 202.866,47.5604 205.199,47.0604 207.5,46.5C 227.19,41.2458 247.023,36.5792 267,32.5C 282.046,39.687 296.879,47.3537 311.5,55.5 Z"/></g>
<g><path style="opacity:1" fill="#514016" d="M 313.5,51.5 C 316.335,54.1653 319.335,56.6653 322.5,59C 335.562,66.1947 348.562,73.3613 361.5,80.5C 360.508,80.3284 359.842,80.6618 359.5,81.5C 350.892,76.8604 342.225,72.1938 333.5,67.5C 337.567,72.5483 342.567,77.215 348.5,81.5C 347.662,81.8417 347.328,82.5084 347.5,83.5C 336.312,72.9615 324.312,63.6282 311.5,55.5C 314.481,55.2056 315.148,53.8722 313.5,51.5 Z"/></g>
<g><path style="opacity:1" fill="#7c603a" d="M 207.5,42.5 C 208.167,42.5 208.833,42.5 209.5,42.5C 209.5,43.1667 209.833,43.5 210.5,43.5C 209.1,44.1001 208.1,45.1001 207.5,46.5C 205.199,47.0604 202.866,47.5604 200.5,48C 178.279,60.391 155.946,72.5577 133.5,84.5C 133.66,82.8008 133.494,81.1341 133,79.5C 132.617,80.056 132.117,80.3893 131.5,80.5C 134.479,73.9266 137.479,67.2599 140.5,60.5C 158.714,55.5298 177.047,51.0298 195.5,47C 199.671,45.7388 203.671,44.2388 207.5,42.5 Z"/></g>
<g><path style="opacity:1" fill="#0a0401" d="M 182.5,51.5 C 184.527,51.3379 186.527,51.5045 188.5,52C 170.489,61.424 152.656,71.2573 135,81.5C 134.333,80.5 134.333,79.5 135,78.5C 137.496,73.0173 139.996,67.5173 142.5,62C 156.179,59.3054 169.512,55.8054 182.5,51.5 Z"/></g>
<g><path style="opacity:1" fill="#0b0502" d="M 359.5,81.5 C 367.173,86.3382 375.173,90.6715 383.5,94.5C 384.937,95.7255 386.604,96.7255 388.5,97.5C 389.301,106.432 392.801,114.099 399,120.5C 399.499,125.489 399.666,130.489 399.5,135.5C 398.517,139.298 398.183,143.298 398.5,147.5C 397.833,139.167 397.167,130.833 396.5,122.5C 395.024,120.5 393.191,118.833 391,117.5C 390.517,116.552 390.351,115.552 390.5,114.5C 386.98,110.009 383.314,105.509 379.5,101C 377.299,100.175 375.466,100.675 374,102.5C 365.561,95.3724 357.061,88.3724 348.5,81.5C 342.567,77.215 337.567,72.5483 333.5,67.5C 342.225,72.1938 350.892,76.8604 359.5,81.5 Z"/></g>
<g><path style="opacity:1" fill="#756439" d="M 361.5,80.5 C 369.445,84.469 377.112,88.8023 384.5,93.5C 383.833,93.5 383.5,93.8333 383.5,94.5C 375.173,90.6715 367.173,86.3382 359.5,81.5C 359.842,80.6618 360.508,80.3284 361.5,80.5 Z"/></g>
<g><path style="opacity:1" fill="#a58e5c" d="M 409.5,113.5 C 408.349,118.65 408.183,123.984 409,129.5C 409.717,128.956 410.217,128.289 410.5,127.5C 411.5,126.833 412.5,126.167 413.5,125.5C 413.5,126.5 413.5,127.5 413.5,128.5C 408.682,132.652 405.015,137.652 402.5,143.5C 402.179,145.048 401.179,145.715 399.5,145.5C 399.5,142.167 399.5,138.833 399.5,135.5C 399.666,130.489 399.499,125.489 399,120.5C 392.801,114.099 389.301,106.432 388.5,97.5C 386.604,96.7255 384.937,95.7255 383.5,94.5C 383.5,93.8333 383.833,93.5 384.5,93.5C 386.745,94.6352 389.078,95.1352 391.5,95C 393.123,91.3969 394.29,87.5635 395,83.5C 397.332,80.2091 400.165,79.7091 403.5,82C 405.385,84.9387 406.885,88.1054 408,91.5C 409,92.5 410,93.5 411,94.5C 411.917,100.996 411.417,107.329 409.5,113.5 Z"/></g>
<g><path style="opacity:1" fill="#110a05" d="M 397.5,83.5 C 399.722,83.178 401.556,83.8446 403,85.5C 404.03,87.5883 404.863,89.755 405.5,92C 403.88,94.7384 402.38,97.5718 401,100.5C 399.71,98.208 398.043,96.208 396,94.5C 395.116,90.5674 395.616,86.9007 397.5,83.5 Z"/></g>
<g><path style="opacity:1" fill="#050201" d="M 93.5,165.5 C 92.503,146.341 92.1697,127.007 92.5,107.5C 103.739,101.208 115.072,94.8752 126.5,88.5C 126.833,88.8333 127.167,89.1667 127.5,89.5C 115.606,114.619 104.272,139.952 93.5,165.5 Z"/></g>
<g><path style="opacity:1" fill="#110c05" d="M 406.5,94.5 C 407.496,94.4142 408.329,94.7476 409,95.5C 411.283,104.282 409.117,111.615 402.5,117.5C 401.338,112.869 401.172,108.202 402,103.5C 403.527,100.447 405.027,97.4469 406.5,94.5 Z"/></g>
<g><path style="opacity:1" fill="#8f7a4e" d="M 133.5,84.5 C 130.508,88.4757 128.008,92.809 126,97.5C 115.058,122.376 103.891,147.042 92.5,171.5C 92.5,170.167 92.5,168.833 92.5,167.5C 92.8333,166.833 93.1667,166.167 93.5,165.5C 104.272,139.952 115.606,114.619 127.5,89.5C 127.167,89.1667 126.833,88.8333 126.5,88.5C 115.072,94.8752 103.739,101.208 92.5,107.5C 92.1667,107.5 91.8333,107.5 91.5,107.5C 91.5654,107.062 91.3988,106.728 91,106.5C 90.7216,107.416 90.2216,108.082 89.5,108.5C 89.281,107.325 89.6143,106.325 90.5,105.5C 103.007,98.4124 115.674,91.579 128.5,85C 129.883,83.7292 130.883,82.2292 131.5,80.5C 132.117,80.3893 132.617,80.056 133,79.5C 133.494,81.1341 133.66,82.8008 133.5,84.5 Z"/></g>
<g><path style="opacity:1" fill="#0d0603" d="M 392.5,96.5 C 396.043,96.872 398.21,98.872 399,102.5C 401.307,120.461 398.973,121.127 392,104.5C 391.398,101.779 391.565,99.1128 392.5,96.5 Z"/></g>
<g><path style="opacity:1" fill="#0c0401" d="M 389.5,117.5 C 390.563,124.361 388.896,130.361 384.5,135.5C 383.145,129.897 382.645,124.23 383,118.5C 384.776,111.153 386.943,110.819 389.5,117.5 Z"/></g>
<g><path style="opacity:1" fill="#453106" d="M 409.5,113.5 C 409.181,118.363 409.514,123.03 410.5,127.5C 410.217,128.289 409.717,128.956 409,129.5C 408.183,123.984 408.349,118.65 409.5,113.5 Z"/></g>
<g><path style="opacity:1" fill="#080301" d="M 405.5,117.5 C 406.65,122.316 406.816,127.316 406,132.5C 404.667,134.5 403.333,136.5 402,138.5C 401.17,132.472 401.336,126.472 402.5,120.5C 403.855,119.812 404.855,118.812 405.5,117.5 Z"/></g>
<g><path style="opacity:1" fill="#403216" d="M 91.5,107.5 C 91.8333,107.5 92.1667,107.5 92.5,107.5C 92.1697,127.007 92.503,146.341 93.5,165.5C 93.1667,166.167 92.8333,166.833 92.5,167.5C 91.5029,147.674 91.1695,127.674 91.5,107.5 Z"/></g>
<g><path style="opacity:1" fill="#180d03" d="M 402.5,143.5 C 405.015,137.652 408.682,132.652 413.5,128.5C 414.363,127.537 415.03,127.537 415.5,128.5C 413.706,133.261 411.04,137.427 407.5,141C 405.922,142.094 404.255,142.928 402.5,143.5 Z"/></g>
<g><path style="opacity:1" fill="#806d3e" d="M 348.5,81.5 C 357.061,88.3724 365.561,95.3724 374,102.5C 375.466,100.675 377.299,100.175 379.5,101C 383.314,105.509 386.98,110.009 390.5,114.5C 389.596,115.209 389.263,116.209 389.5,117.5C 386.943,110.819 384.776,111.153 383,118.5C 382.645,124.23 383.145,129.897 384.5,135.5C 383.167,136.167 381.833,136.833 380.5,137.5C 377.269,135.78 374.436,133.447 372,130.5C 368.544,124.978 368.711,119.645 372.5,114.5C 371.442,111.152 371.275,107.819 372,104.5C 363.667,97.6645 355.5,90.6645 347.5,83.5C 347.328,82.5084 347.662,81.8417 348.5,81.5 Z"/></g>
<g><path style="opacity:1" fill="#0f0603" d="M 371.5,118.5 C 375.683,117.846 378.516,119.512 380,123.5C 381.302,127.597 381.802,131.597 381.5,135.5C 374.301,132.102 370.968,126.436 371.5,118.5 Z"/></g>
<g><path style="opacity:1" fill="#0a0401" d="M 376.5,103.5 C 380.497,104.256 382.831,106.756 383.5,111C 382.333,113.833 381.167,116.667 380,119.5C 374.073,115.318 372.906,109.984 376.5,103.5 Z"/></g>
<g><path style="opacity:1" fill="#907b4b" d="M 390.5,114.5 C 390.351,115.552 390.517,116.552 391,117.5C 393.191,118.833 395.024,120.5 396.5,122.5C 396.5,134.833 396.5,147.167 396.5,159.5C 396.156,162.562 395.489,165.562 394.5,168.5C 393.893,168.376 393.56,168.043 393.5,167.5C 392.662,167.842 392.328,168.508 392.5,169.5C 391.399,168.152 390.399,166.652 389.5,165C 381.523,164.843 374.523,162.176 368.5,157C 366.393,155.736 365.393,153.903 365.5,151.5C 369.514,151.334 373.514,151.501 377.5,152C 380.308,152.598 382.808,153.765 385,155.5C 385.271,150.781 384.771,146.115 383.5,141.5C 383.213,139.557 382.213,138.223 380.5,137.5C 381.833,136.833 383.167,136.167 384.5,135.5C 388.896,130.361 390.563,124.361 389.5,117.5C 389.263,116.209 389.596,115.209 390.5,114.5 Z"/></g>
<g><path style="opacity:1" fill="#080301" d="M 393.5,167.5 C 389.229,159.016 386.562,150.016 385.5,140.5C 388.801,134.604 391.135,128.271 392.5,121.5C 393.086,121.709 393.586,122.043 394,122.5C 394.828,137.672 394.661,152.672 393.5,167.5 Z"/></g>
<g><path style="opacity:1" fill="#4e380a" d="M 396.5,122.5 C 397.167,130.833 397.833,139.167 398.5,147.5C 398.5,148.833 398.5,150.167 398.5,151.5C 397.833,154.167 397.167,156.833 396.5,159.5C 396.5,147.167 396.5,134.833 396.5,122.5 Z"/></g>
<g><path style="opacity:1" fill="#090402" d="M 405.5,188.5 C 402.568,189.8 400.234,191.8 398.5,194.5C 397.513,189.695 397.179,184.695 397.5,179.5C 398.497,170.192 399.163,160.859 399.5,151.5C 400.038,149.883 400.371,148.216 400.5,146.5C 402.582,146.528 404.416,145.861 406,144.5C 406.815,159.241 406.649,173.908 405.5,188.5 Z"/></g>
<g><path style="opacity:1" fill="#100702" d="M 369.5,154.5 C 376.106,153.28 381.773,155.28 386.5,160.5C 380.091,160.918 374.425,158.918 369.5,154.5 Z"/></g>
<g><path style="opacity:1" fill="#b59e69" d="M 409.5,142.5 C 408.174,156.672 408.174,171.006 409.5,185.5C 410.107,185.376 410.44,185.043 410.5,184.5C 411.721,183.972 412.887,183.305 414,182.5C 413.709,177.856 413.709,173.189 414,168.5C 414.637,166.697 415.803,165.364 417.5,164.5C 417.79,159.911 419.123,155.745 421.5,152C 424.51,149.778 427.01,150.278 429,153.5C 430.268,157.634 432.268,161.3 435,164.5C 438.13,176.541 434.797,186.208 425,193.5C 422.474,205.218 417.308,215.551 409.5,224.5C 412.514,225.231 415.347,224.564 418,222.5C 419.695,217.23 421.862,212.23 424.5,207.5C 425.167,207.5 425.833,207.5 426.5,207.5C 424.382,211.62 422.715,215.953 421.5,220.5C 417.371,223.875 417.704,224.875 422.5,223.5C 423.473,226.135 425.14,228.135 427.5,229.5C 426.508,229.328 425.842,229.662 425.5,230.5C 422.924,229.431 420.757,227.765 419,225.5C 415.793,226.736 412.626,228.069 409.5,229.5C 407.98,235.682 408.313,241.682 410.5,247.5C 409.833,247.5 409.167,247.5 408.5,247.5C 407.11,246.101 406.11,244.434 405.5,242.5C 405.5,241.5 405.5,240.5 405.5,239.5C 406.477,236.713 406.81,233.713 406.5,230.5C 404.473,230.338 402.473,230.505 400.5,231C 399.244,231.417 398.577,232.25 398.5,233.5C 397.566,232.432 397.232,231.099 397.5,229.5C 400.525,228.235 403.358,226.568 406,224.5C 406.667,216.167 406.667,207.833 406,199.5C 403.901,201.797 401.401,203.464 398.5,204.5C 397.5,204.167 396.833,203.5 396.5,202.5C 402.932,199.237 407.932,194.403 411.5,188C 409.811,188.134 408.144,188.634 406.5,189.5C 405.833,189.5 405.5,189.167 405.5,188.5C 406.649,173.908 406.815,159.241 406,144.5C 404.416,145.861 402.582,146.528 400.5,146.5C 400.371,148.216 400.038,149.883 399.5,151.5C 399.167,151.5 398.833,151.5 398.5,151.5C 398.5,150.167 398.5,148.833 398.5,147.5C 398.183,143.298 398.517,139.298 399.5,135.5C 399.5,138.833 399.5,142.167 399.5,145.5C 401.179,145.715 402.179,145.048 402.5,143.5C 404.255,142.928 405.922,142.094 407.5,141C 411.04,137.427 413.706,133.261 415.5,128.5C 415.03,127.537 414.363,127.537 413.5,128.5C 413.5,127.5 413.5,126.5 413.5,125.5C 414.936,124.571 416.269,123.405 417.5,122C 418.635,121.251 419.635,121.417 420.5,122.5C 417.865,129.773 414.198,136.439 409.5,142.5 Z"/></g>
<g><path style="opacity:1" fill="#0b0501" d="M 423.5,153.5 C 424.822,153.33 425.989,153.663 427,154.5C 428.404,156.639 429.237,158.972 429.5,161.5C 428.303,164.9 426.803,168.234 425,171.5C 419.619,165.907 419.119,159.907 423.5,153.5 Z"/></g>
<g><path style="opacity:1" fill="#150d08" d="M 430.5,165.5 C 431.496,165.414 432.329,165.748 433,166.5C 435.383,175.668 433.05,183.335 426,189.5C 424.269,180.785 425.769,172.785 430.5,165.5 Z"/></g>
<g><path style="opacity:1" fill="#0f0b04" d="M 417.5,167.5 C 420.452,168.359 422.285,170.359 423,173.5C 423.667,178.833 423.667,184.167 423,189.5C 416.265,183.172 414.431,175.839 417.5,167.5 Z"/></g>
<g><path style="opacity:1" fill="#47310c" d="M 409.5,142.5 C 409.171,156.677 409.504,170.677 410.5,184.5C 410.44,185.043 410.107,185.376 409.5,185.5C 408.174,171.006 408.174,156.672 409.5,142.5 Z"/></g>
<g><path style="opacity:1" fill="#9a8b66" d="M 317.5,187.5 C 319.087,184.732 320.92,182.065 323,179.5C 323.494,177.866 323.66,176.199 323.5,174.5C 321.315,174.704 319.315,175.37 317.5,176.5C 320.526,171.731 323.526,171.564 326.5,176C 324.795,180.869 321.795,184.702 317.5,187.5 Z"/></g>
<g><path style="opacity:1" fill="#a68a63" d="M 173.5,178.5 C 172.167,178.5 171.5,179.167 171.5,180.5C 166.303,176.463 161.303,176.797 156.5,181.5C 156.167,181.5 155.833,181.5 155.5,181.5C 159.2,176.324 164.2,174.491 170.5,176C 171.942,176.377 172.942,177.21 173.5,178.5 Z"/></g>
<g><path style="opacity:1" fill="#050201" d="M 171.5,180.5 C 172.452,186.075 172.786,191.741 172.5,197.5C 171.6,201.724 170.6,206.057 169.5,210.5C 165.998,212.262 162.332,212.762 158.5,212C 150.849,208.587 142.849,207.087 134.5,207.5C 133.153,208.028 131.819,208.195 130.5,208C 139.369,199.298 148.036,190.465 156.5,181.5C 161.303,176.797 166.303,176.463 171.5,180.5 Z"/></g>
<g><path style="opacity:1" fill="#0b0602" d="M 317.5,187.5 C 312.533,191.132 307.867,195.132 303.5,199.5C 300.658,200.172 298.158,201.506 296,203.5C 296.134,201.811 296.634,200.144 297.5,198.5C 304.157,191.208 310.824,183.875 317.5,176.5C 319.315,175.37 321.315,174.704 323.5,174.5C 323.66,176.199 323.494,177.866 323,179.5C 320.92,182.065 319.087,184.732 317.5,187.5 Z"/></g>
<g><path style="opacity:1" fill="#080301" d="M 410.5,219.5 C 409.508,211.684 409.174,203.684 409.5,195.5C 411.839,191.643 414.006,187.643 416,183.5C 418.048,187.1 420.214,190.6 422.5,194C 420.473,203.549 416.473,212.049 410.5,219.5 Z"/></g>
<g><path style="opacity:1" fill="#51401b" d="M 352.5,209.5 C 352.5,209.833 352.5,210.167 352.5,210.5C 350.236,211.219 347.903,211.552 345.5,211.5C 348.1,210.031 347.767,209.031 344.5,208.5C 345.765,207.521 347.099,206.521 348.5,205.5C 349.429,204.311 349.762,202.978 349.5,201.5C 349.379,196.053 346.712,192.719 341.5,191.5C 340.99,195.813 341.657,199.813 343.5,203.5C 343.068,204.71 342.401,205.71 341.5,206.5C 341.586,205.504 341.252,204.671 340.5,204C 337.815,202.1 335.481,202.266 333.5,204.5C 333.119,203.069 332.119,202.236 330.5,202C 331.056,201.617 331.389,201.117 331.5,200.5C 334.187,200.664 336.854,200.497 339.5,200C 338.875,197.2 338.208,194.366 337.5,191.5C 329.388,189.39 327.388,192.057 331.5,199.5C 330.041,199.433 328.708,199.766 327.5,200.5C 327.335,197.15 327.502,193.817 328,190.5C 328.833,189.667 329.667,188.833 330.5,188C 335.247,188.41 339.913,188.743 344.5,189C 347.473,190.765 349.64,193.265 351,196.5C 351.175,201.019 351.675,205.353 352.5,209.5 Z"/></g>
<g><path style="opacity:1" fill="#a7906d" d="M 195.5,207.5 C 191.974,212.096 187.308,214.263 181.5,214C 180.17,211.123 180.336,208.289 182,205.5C 185.465,201.033 189.298,196.867 193.5,193C 187.509,192.501 181.509,192.334 175.5,192.5C 175.5,191.833 175.5,191.167 175.5,190.5C 182.508,190.666 189.508,190.5 196.5,190C 198.017,188.315 199.684,186.815 201.5,185.5C 201.833,185.833 202.167,186.167 202.5,186.5C 201.019,187.48 199.685,188.647 198.5,190C 203.202,190.172 207.868,190.672 212.5,191.5C 206.862,192.33 201.196,192.83 195.5,193C 191.65,196.549 188.15,200.383 185,204.5C 183.097,206.441 182.264,208.774 182.5,211.5C 184.527,211.662 186.527,211.495 188.5,211C 190.886,209.807 193.22,208.64 195.5,207.5 Z"/></g>
<g><path style="opacity:1" fill="#050100" d="M 331.5,200.5 C 331.5,200.167 331.5,199.833 331.5,199.5C 327.388,192.057 329.388,189.39 337.5,191.5C 338.208,194.366 338.875,197.2 339.5,200C 336.854,200.497 334.187,200.664 331.5,200.5 Z"/></g>
<g><path style="opacity:1" fill="#060400" d="M 349.5,201.5 C 347.142,201.253 345.142,201.919 343.5,203.5C 341.657,199.813 340.99,195.813 341.5,191.5C 346.712,192.719 349.379,196.053 349.5,201.5 Z"/></g>
<g><path style="opacity:1" fill="#8e8169" d="M 317.5,176.5 C 310.824,183.875 304.157,191.208 297.5,198.5C 300.037,193.783 303.204,189.449 307,185.5C 310.098,181.893 313.598,178.893 317.5,176.5 Z"/></g>
<g><path style="opacity:1" fill="#513910" d="M 397.5,179.5 C 397.179,184.695 397.513,189.695 398.5,194.5C 398.44,195.043 398.107,195.376 397.5,195.5C 396.185,190.014 396.185,184.68 397.5,179.5 Z"/></g>
<g><path style="opacity:1" fill="#090402" d="M 88.5,179.5 C 89.404,180.209 89.7373,181.209 89.5,182.5C 89.6665,194.838 89.4999,207.171 89,219.5C 86.3333,213.5 83.6667,207.5 81,201.5C 80.5162,199.087 80.8495,196.754 82,194.5C 84.712,189.742 86.8786,184.742 88.5,179.5 Z"/></g>
<g><path style="opacity:1" fill="#89856f" d="M 281.5,194.5 C 281.511,192.314 282.511,191.481 284.5,192C 283.627,193.045 282.627,193.878 281.5,194.5 Z"/></g>
<g><path style="opacity:1" fill="#bea262" d="M 173.5,178.5 C 175.343,182.187 176.01,186.187 175.5,190.5C 175.5,191.167 175.5,191.833 175.5,192.5C 175.721,195.279 175.388,197.946 174.5,200.5C 173.094,200.027 172.427,199.027 172.5,197.5C 172.786,191.741 172.452,186.075 171.5,180.5C 171.5,179.167 172.167,178.5 173.5,178.5 Z"/></g>
<g><path style="opacity:1" fill="#8d7f5d" d="M 317.5,187.5 C 313.767,192.564 309.101,196.564 303.5,199.5C 307.867,195.132 312.533,191.132 317.5,187.5 Z"/></g>
<g><path style="opacity:1" fill="#130802" d="M 396.5,202.5 C 396.062,202.565 395.728,202.399 395.5,202C 399.003,197.665 402.67,193.499 406.5,189.5C 408.144,188.634 409.811,188.134 411.5,188C 407.932,194.403 402.932,199.237 396.5,202.5 Z"/></g>
<g><path style="opacity:1" fill="#c7a35f" d="M 331.5,199.5 C 331.5,199.833 331.5,200.167 331.5,200.5C 331.389,201.117 331.056,201.617 330.5,202C 332.119,202.236 333.119,203.069 333.5,204.5C 333.167,205.167 332.833,205.833 332.5,206.5C 331.849,205.909 331.182,205.243 330.5,204.5C 329.893,204.624 329.56,204.957 329.5,205.5C 328.5,205.5 327.5,205.5 326.5,205.5C 326.167,205.5 325.833,205.5 325.5,205.5C 325.392,203.486 326.058,201.82 327.5,200.5C 328.708,199.766 330.041,199.433 331.5,199.5 Z"/></g>
<g><path style="opacity:1" fill="#0e0602" d="M 341.5,206.5 C 340.833,208.5 339.5,209.833 337.5,210.5C 334.966,210.741 333.3,209.741 332.5,207.5C 332.5,207.167 332.5,206.833 332.5,206.5C 332.833,205.833 333.167,205.167 333.5,204.5C 335.481,202.266 337.815,202.1 340.5,204C 341.252,204.671 341.586,205.504 341.5,206.5 Z"/></g>
<g><path style="opacity:1" fill="#99844d" d="M 398.5,151.5 C 398.833,151.5 399.167,151.5 399.5,151.5C 399.163,160.859 398.497,170.192 397.5,179.5C 396.185,184.68 396.185,190.014 397.5,195.5C 398.107,195.376 398.44,195.043 398.5,194.5C 400.234,191.8 402.568,189.8 405.5,188.5C 405.5,189.167 405.833,189.5 406.5,189.5C 402.67,193.499 399.003,197.665 395.5,202C 395.728,202.399 396.062,202.565 396.5,202.5C 396.833,203.5 397.5,204.167 398.5,204.5C 397.531,212.748 397.198,221.082 397.5,229.5C 397.232,231.099 397.566,232.432 398.5,233.5C 401.432,234.8 403.766,236.8 405.5,239.5C 405.5,240.5 405.5,241.5 405.5,242.5C 402.701,239.363 399.368,237.029 395.5,235.5C 394.833,235.5 394.167,235.5 393.5,235.5C 392.652,234.375 391.652,234.375 390.5,235.5C 389.662,235.158 389.328,234.492 389.5,233.5C 390.807,232.847 392.14,232.18 393.5,231.5C 394.833,223.167 394.833,214.833 393.5,206.5C 392.893,206.624 392.56,206.957 392.5,207.5C 391.566,206.432 391.232,205.099 391.5,203.5C 392.908,195.232 393.908,186.899 394.5,178.5C 394.731,175.19 394.065,172.19 392.5,169.5C 392.328,168.508 392.662,167.842 393.5,167.5C 393.56,168.043 393.893,168.376 394.5,168.5C 395.489,165.562 396.156,162.562 396.5,159.5C 397.167,156.833 397.833,154.167 398.5,151.5 Z"/></g>
<g><path style="opacity:1" fill="#060302" d="M 397.5,229.5 C 397.198,221.082 397.531,212.748 398.5,204.5C 401.401,203.464 403.901,201.797 406,199.5C 406.667,207.833 406.667,216.167 406,224.5C 403.358,226.568 400.525,228.235 397.5,229.5 Z"/></g>
<g><path style="opacity:1" fill="#433005" d="M 409.5,195.5 C 409.174,203.684 409.508,211.684 410.5,219.5C 410.217,220.289 409.717,220.956 409,221.5C 408.176,212.657 408.343,203.99 409.5,195.5 Z"/></g>
<g><path style="opacity:1" fill="#958353" d="M 88.5,176.5 C 88.5,177.5 88.5,178.5 88.5,179.5C 86.8786,184.742 84.712,189.742 82,194.5C 80.8495,196.754 80.5162,199.087 81,201.5C 83.6667,207.5 86.3333,213.5 89,219.5C 89.4999,207.171 89.6665,194.838 89.5,182.5C 90.825,195.006 90.825,207.673 89.5,220.5C 88.8165,220.863 88.1499,221.196 87.5,221.5C 84.3174,214.299 80.9841,207.133 77.5,200C 80.8051,191.895 84.4718,184.062 88.5,176.5 Z"/></g>
<g><path style="opacity:1" fill="#b49465" d="M 222.5,211.5 C 223.167,212.167 223.833,212.833 224.5,213.5C 220.076,214.013 217.743,212.013 217.5,207.5C 213.781,209.719 209.948,211.719 206,213.5C 204.655,211.557 205.155,209.724 207.5,208C 203.701,209.233 200.034,211.066 196.5,213.5C 195.479,212.998 195.312,212.332 196,211.5C 198.757,209.796 200.09,207.462 200,204.5C 198.871,206.141 197.371,207.141 195.5,207.5C 197.193,204.318 199.859,202.652 203.5,202.5C 203.34,204.199 203.506,205.866 204,207.5C 206.69,204.551 209.857,203.551 213.5,204.5C 212.167,205.62 211.667,206.953 212,208.5C 215.124,206.689 218.291,205.022 221.5,203.5C 222.167,203.833 222.833,204.167 223.5,204.5C 221.447,206.729 221.114,209.062 222.5,211.5 Z"/></g>
<g><path style="opacity:1" fill="#b08b55" d="M 349.5,201.5 C 349.762,202.978 349.429,204.311 348.5,205.5C 347.099,206.521 345.765,207.521 344.5,208.5C 343.115,209.947 343.448,210.947 345.5,211.5C 347.903,211.552 350.236,211.219 352.5,210.5C 352.5,210.833 352.5,211.167 352.5,211.5C 351.005,211.989 349.671,212.655 348.5,213.5C 347.833,213.5 347.167,213.5 346.5,213.5C 343.453,214.145 341.287,213.145 340,210.5C 338.855,211.636 337.688,212.636 336.5,213.5C 327.707,216.376 325.374,213.709 329.5,205.5C 329.56,204.957 329.893,204.624 330.5,204.5C 331.182,205.243 331.849,205.909 332.5,206.5C 332.5,206.833 332.5,207.167 332.5,207.5C 330.054,208.392 329.388,209.892 330.5,212C 333.139,212.588 335.473,212.088 337.5,210.5C 339.5,209.833 340.833,208.5 341.5,206.5C 342.401,205.71 343.068,204.71 343.5,203.5C 345.142,201.919 347.142,201.253 349.5,201.5 Z"/></g>
<g><path style="opacity:1" fill="#0e0704" d="M 421.5,220.5 C 422.715,215.953 424.382,211.62 426.5,207.5C 429.282,204.776 432.615,203.109 436.5,202.5C 436.198,212.447 431.198,218.447 421.5,220.5 Z"/></g>
<g><path style="opacity:1" fill="#a68b60" d="M 281.5,194.5 C 279.934,197.412 277.934,200.079 275.5,202.5C 277.987,202.782 280.653,202.782 283.5,202.5C 283.969,205.393 282.969,207.393 280.5,208.5C 276.97,213.294 272.637,214.46 267.5,212C 260.038,219.603 254.038,228.103 249.5,237.5C 247.899,236.965 247.399,235.965 248,234.5C 252.77,226.63 258.27,219.297 264.5,212.5C 264.167,212.167 263.833,211.833 263.5,211.5C 260.666,212.884 257.666,213.551 254.5,213.5C 250.105,211.698 245.605,211.031 241,211.5C 238.282,213.794 235.115,214.794 231.5,214.5C 231.762,213.022 231.429,211.689 230.5,210.5C 228.473,211.513 226.473,212.513 224.5,213.5C 223.833,212.833 223.167,212.167 222.5,211.5C 228.619,210.23 233.952,207.397 238.5,203C 240.712,202.211 242.712,202.378 244.5,203.5C 245.819,205.605 245.486,207.605 243.5,209.5C 244,209.833 244.5,210.167 245,210.5C 249.243,208.628 253.077,206.128 256.5,203C 259.237,201.92 260.904,202.754 261.5,205.5C 260.935,207.405 259.935,209.071 258.5,210.5C 258.833,210.833 259.167,211.167 259.5,211.5C 262.994,209.921 266.327,208.087 269.5,206C 273.369,201.963 277.369,198.13 281.5,194.5 Z"/></g>
<g><path style="opacity:1" fill="#160c03" d="M 255.5,204.5 C 256.5,204.5 257.5,204.5 258.5,204.5C 257.858,210.481 254.858,212.314 249.5,210C 251.996,208.669 253.996,206.836 255.5,204.5 Z"/></g>
<g><path style="opacity:1" fill="#130c03" d="M 237.5,205.5 C 238.693,205.97 239.36,206.97 239.5,208.5C 239.448,210.855 238.281,212.188 236,212.5C 234.72,212.387 233.887,211.72 233.5,210.5C 234.16,208.185 235.493,206.519 237.5,205.5 Z"/></g>
<g><path style="opacity:1" fill="#170c03" d="M 244.5,203.5 C 244.756,205.912 243.756,207.579 241.5,208.5C 240.162,205.516 241.162,203.849 244.5,203.5 Z"/></g>
<g><path style="opacity:1" fill="#110e07" d="M 280.5,208.5 C 277.817,210.336 274.817,211.336 271.5,211.5C 272.802,206.492 276.135,203.826 281.5,203.5C 281.634,205.292 281.301,206.958 280.5,208.5 Z"/></g>
<g><path style="opacity:1" fill="#72684a" d="M 155.5,181.5 C 155.833,181.5 156.167,181.5 156.5,181.5C 148.036,190.465 139.369,199.298 130.5,208C 131.819,208.195 133.153,208.028 134.5,207.5C 135.209,208.404 136.209,208.737 137.5,208.5C 131.133,209.675 125.133,212.009 119.5,215.5C 131.776,204.56 143.776,193.227 155.5,181.5 Z"/></g>
<g><path style="opacity:1" fill="#482d13" d="M 332.5,207.5 C 333.3,209.741 334.966,210.741 337.5,210.5C 335.473,212.088 333.139,212.588 330.5,212C 329.388,209.892 330.054,208.392 332.5,207.5 Z"/></g>
<g><path style="opacity:1" fill="#897c5a" d="M 352.5,211.5 C 352.5,211.167 352.5,210.833 352.5,210.5C 352.5,210.167 352.5,209.833 352.5,209.5C 355.55,206.904 358.883,205.071 362.5,204C 359.316,206.752 355.982,209.252 352.5,211.5 Z"/></g>
<g><path style="opacity:1" fill="#ae9063" d="M 172.5,197.5 C 172.427,199.027 173.094,200.027 174.5,200.5C 174.768,203.119 174.435,205.619 173.5,208C 174.167,208.333 174.833,208.667 175.5,209C 173.996,210.491 173.163,212.324 173,214.5C 171.989,215.337 170.822,215.67 169.5,215.5C 169.719,214.325 169.386,213.325 168.5,212.5C 164.33,214.352 159.996,214.852 155.5,214C 149.678,211.447 143.678,209.614 137.5,208.5C 136.209,208.737 135.209,208.404 134.5,207.5C 142.849,207.087 150.849,208.587 158.5,212C 162.332,212.762 165.998,212.262 169.5,210.5C 170.6,206.057 171.6,201.724 172.5,197.5 Z"/></g>
<g><path style="opacity:1" fill="#1f0500" d="M 344.5,208.5 C 347.767,209.031 348.1,210.031 345.5,211.5C 343.448,210.947 343.115,209.947 344.5,208.5 Z"/></g>
<g><path style="opacity:1" fill="#a78a5d" d="M 297.5,198.5 C 296.634,200.144 296.134,201.811 296,203.5C 298.158,201.506 300.658,200.172 303.5,199.5C 302.167,200.833 300.833,202.167 299.5,203.5C 301.17,203.249 302.67,202.582 304,201.5C 303.554,204.438 303.054,207.438 302.5,210.5C 303.552,210.649 304.552,210.483 305.5,210C 307,206.002 309.666,203.169 313.5,201.5C 315,201.453 316,202.119 316.5,203.5C 314.36,206.061 312.027,208.395 309.5,210.5C 310.5,210.833 311.5,211.167 312.5,211.5C 317.255,210.287 321.589,208.287 325.5,205.5C 325.833,205.5 326.167,205.5 326.5,205.5C 322.883,209.316 318.549,212.15 313.5,214C 310.364,215.041 307.864,214.207 306,211.5C 301.051,213.734 298.551,212.067 298.5,206.5C 295.167,208.833 291.833,211.167 288.5,213.5C 287.417,212.635 287.251,211.635 288,210.5C 290.945,206.249 294.112,202.249 297.5,198.5 Z"/></g>
<g><path style="opacity:1" fill="#201307" d="M 299.5,203.5 C 297.188,205.636 294.688,207.636 292,209.5C 292.728,205.629 295.228,203.629 299.5,203.5 Z"/></g>
<g><path style="opacity:1" fill="#1f0d02" d="M 311.5,203.5 C 312.239,203.369 312.906,203.536 313.5,204C 312.333,205.167 311.167,206.333 310,207.5C 309.7,205.934 310.2,204.601 311.5,203.5 Z"/></g>
<g><path style="opacity:1" fill="#5e491e" d="M 346.5,213.5 C 343.269,214.782 339.936,214.782 336.5,213.5C 337.688,212.636 338.855,211.636 340,210.5C 341.287,213.145 343.453,214.145 346.5,213.5 Z"/></g>
<g><path style="opacity:1" fill="#0d0401" d="M 389.5,233.5 C 388.206,234.29 387.039,235.29 386,236.5C 388.301,226.954 390.467,217.288 392.5,207.5C 392.56,206.957 392.893,206.624 393.5,206.5C 394.833,214.833 394.833,223.167 393.5,231.5C 392.14,232.18 390.807,232.847 389.5,233.5 Z"/></g>
<g><path style="opacity:1" fill="#7e7860" d="M 119.5,215.5 C 118.426,216.885 117.093,218.051 115.5,219C 114.668,219.688 114.002,219.521 113.5,218.5C 115.243,216.962 117.243,215.962 119.5,215.5 Z"/></g>
<g><path style="opacity:1" fill="#bfa35f" d="M 425.5,230.5 C 425.842,229.662 426.508,229.328 427.5,229.5C 431.459,231.208 434.959,230.542 438,227.5C 439.135,222.8 437.301,220.134 432.5,219.5C 428.936,220.283 425.603,221.616 422.5,223.5C 417.704,224.875 417.371,223.875 421.5,220.5C 431.198,218.447 436.198,212.447 436.5,202.5C 432.615,203.109 429.282,204.776 426.5,207.5C 425.833,207.5 425.167,207.5 424.5,207.5C 427.004,203.492 430.504,200.825 435,199.5C 438.828,201.625 442.995,203.125 447.5,204C 450.792,211.606 448.959,217.773 442,222.5C 441.189,228.82 437.689,232.487 431.5,233.5C 428.898,233.533 426.898,232.533 425.5,230.5 Z"/></g>
<g><path style="opacity:1" fill="#0e0802" d="M 439.5,205.5 C 446.72,205.553 448.886,208.886 446,215.5C 442.211,220.767 438.378,220.767 434.5,215.5C 436.18,212.14 437.847,208.807 439.5,205.5 Z"/></g>
<g><path style="opacity:1" fill="#867347" d="M 391.5,203.5 C 391.232,205.099 391.566,206.432 392.5,207.5C 390.467,217.288 388.301,226.954 386,236.5C 387.039,235.29 388.206,234.29 389.5,233.5C 389.328,234.492 389.662,235.158 390.5,235.5C 388.229,237.266 386.063,239.266 384,241.5C 381.826,247.178 379.66,252.845 377.5,258.5C 376.833,258.5 376.167,258.5 375.5,258.5C 381.941,240.385 387.275,222.052 391.5,203.5 Z"/></g>
<g><path style="opacity:1" fill="#0c0502" d="M 427.5,229.5 C 425.14,228.135 423.473,226.135 422.5,223.5C 425.603,221.616 428.936,220.283 432.5,219.5C 437.301,220.134 439.135,222.8 438,227.5C 434.959,230.542 431.459,231.208 427.5,229.5 Z"/></g>
<g><path style="opacity:1" fill="#7c6e3e" d="M 366.5,239.5 C 365.833,239.5 365.5,239.167 365.5,238.5C 367.426,234.978 369.093,231.312 370.5,227.5C 368.079,223.66 365.912,219.66 364,215.5C 363.333,211.833 363.333,208.167 364,204.5C 367.63,201.3 369.963,197.3 371,192.5C 374.333,188.5 377.667,188.5 381,192.5C 381.605,195.908 382.938,198.908 385,201.5C 387.308,213.549 383.141,222.549 372.5,228.5C 370.863,232.455 368.863,236.121 366.5,239.5 Z"/></g>
<g><path style="opacity:1" fill="#0c0701" d="M 380.5,203.5 C 381.5,203.5 382.5,203.5 383.5,203.5C 384.539,211.73 381.872,218.396 375.5,223.5C 373.871,215.969 375.538,209.303 380.5,203.5 Z"/></g>
<g><path style="opacity:1" fill="#0f0702" d="M 367.5,203.5 C 370.452,204.359 372.285,206.359 373,209.5C 373.807,214.375 373.141,219.042 371,223.5C 365.654,217.371 364.487,210.704 367.5,203.5 Z"/></g>
<g><path style="opacity:1" fill="#0c0401" d="M 374.5,191.5 C 376.39,191.297 377.89,191.963 379,193.5C 379.5,195.5 380,197.5 380.5,199.5C 378.927,202.301 377.094,204.968 375,207.5C 370.577,202.233 370.411,196.899 374.5,191.5 Z"/></g>
<g><path style="opacity:1" fill="#130503" d="M 405.5,239.5 C 403.766,236.8 401.432,234.8 398.5,233.5C 398.577,232.25 399.244,231.417 400.5,231C 402.473,230.505 404.473,230.338 406.5,230.5C 406.81,233.713 406.477,236.713 405.5,239.5 Z"/></g>
<g><path style="opacity:1" fill="#050201" d="M 393.5,235.5 C 394.594,249.141 394.76,262.808 394,276.5C 392.296,278.373 390.463,280.04 388.5,281.5C 379.996,281.975 371.996,284.642 364.5,289.5C 363.637,290.463 362.97,290.463 362.5,289.5C 368.331,279.507 373.331,269.173 377.5,258.5C 379.66,252.845 381.826,247.178 384,241.5C 386.063,239.266 388.229,237.266 390.5,235.5C 391.652,234.375 392.652,234.375 393.5,235.5 Z"/></g>
<g><path style="opacity:1" fill="#060301" d="M 93.5,234.5 C 102.138,253.781 110.804,273.115 119.5,292.5C 119.167,292.833 118.833,293.167 118.5,293.5C 110.051,288.374 101.385,283.707 92.5,279.5C 92.1706,264.324 92.5039,249.324 93.5,234.5 Z"/></g>
<g><path style="opacity:1" fill="#3e2f15" d="M 92.5,232.5 C 92.8333,233.167 93.1667,233.833 93.5,234.5C 92.5039,249.324 92.1706,264.324 92.5,279.5C 91.1761,263.263 91.1761,247.597 92.5,232.5 Z"/></g>
<g><path style="opacity:1" fill="#a48b50" d="M 91.5,107.5 C 91.1695,127.674 91.5029,147.674 92.5,167.5C 92.5,168.833 92.5,170.167 92.5,171.5C 91.3476,189.76 91.181,208.093 92,226.5C 93.1882,227.563 93.6882,228.897 93.5,230.5C 93.6716,231.492 93.3382,232.158 92.5,232.5C 91.1761,247.597 91.1761,263.263 92.5,279.5C 92.1583,280.338 91.4916,280.672 90.5,280.5C 89.6683,262.338 89.1683,244.005 89,225.5C 88.2086,224.255 87.7086,222.922 87.5,221.5C 88.1499,221.196 88.8165,220.863 89.5,220.5C 90.825,207.673 90.825,195.006 89.5,182.5C 89.7373,181.209 89.404,180.209 88.5,179.5C 88.5,178.5 88.5,177.5 88.5,176.5C 89.4791,153.879 89.8124,131.212 89.5,108.5C 90.2216,108.082 90.7216,107.416 91,106.5C 91.3988,106.728 91.5654,107.062 91.5,107.5 Z"/></g>
<g><path style="opacity:1" fill="#130b03" d="M 395.5,235.5 C 399.368,237.029 402.701,239.363 405.5,242.5C 406.11,244.434 407.11,246.101 408.5,247.5C 408.719,248.675 408.386,249.675 407.5,250.5C 401.26,247.263 397.26,242.263 395.5,235.5 Z"/></g>
<g><path style="opacity:1" fill="#917c52" d="M 93.5,230.5 C 103.994,252.163 113.994,274.163 123.5,296.5C 123.158,297.338 122.492,297.672 121.5,297.5C 110.971,292.071 100.638,286.405 90.5,280.5C 91.4916,280.672 92.1583,280.338 92.5,279.5C 101.385,283.707 110.051,288.374 118.5,293.5C 118.833,293.167 119.167,292.833 119.5,292.5C 110.804,273.115 102.138,253.781 93.5,234.5C 93.1667,233.833 92.8333,233.167 92.5,232.5C 93.3382,232.158 93.6716,231.492 93.5,230.5 Z"/></g>
<g><path style="opacity:1" fill="#675329" d="M 352.5,211.5 C 356.874,222.704 358.707,234.371 358,246.5C 360.733,243.938 363.233,241.271 365.5,238.5C 365.5,239.167 365.833,239.5 366.5,239.5C 363.917,243.589 360.75,247.256 357,250.5C 355.632,253.738 355.299,257.072 356,260.5C 361.041,253.792 367.041,248.125 374,243.5C 374.325,245.553 373.991,247.553 373,249.5C 369.387,259.12 362.887,265.787 353.5,269.5C 352.508,269.672 351.842,269.338 351.5,268.5C 352.885,260.354 354.219,252.187 355.5,244C 355.167,242.833 354.833,241.667 354.5,240.5C 346.833,236.167 340.833,230.167 336.5,222.5C 336.808,221.692 337.308,221.025 338,220.5C 344.962,222.149 350.629,225.815 355,231.5C 355.076,225.553 353.742,219.886 351,214.5C 350.329,213.748 349.496,213.414 348.5,213.5C 349.671,212.655 351.005,211.989 352.5,211.5 Z"/></g>
<g><path style="opacity:1" fill="#0f0500" d="M 340.5,225.5 C 347.836,225.987 352.336,229.987 354,237.5C 348.685,234.348 344.185,230.348 340.5,225.5 Z"/></g>
<g><path style="opacity:1" fill="#070300" d="M 398.5,246.5 C 400.502,249.334 403.002,251.667 406,253.5C 406.832,262.186 406.665,270.853 405.5,279.5C 396.806,284.179 388.14,288.846 379.5,293.5C 379.062,293.565 378.728,293.399 378.5,293C 382.359,289.968 386.026,286.802 389.5,283.5C 391.858,281.471 394.192,279.471 396.5,277.5C 397.167,267.167 397.833,256.833 398.5,246.5 Z"/></g>
<g><path style="opacity:1" fill="#140b01" d="M 369.5,249.5 C 370.043,249.56 370.376,249.893 370.5,250.5C 367.791,256.427 363.791,261.26 358.5,265C 357.241,265.982 355.908,266.315 354.5,266C 358.942,259.912 363.942,254.412 369.5,249.5 Z"/></g>
<g><path style="opacity:1" fill="#6a5d44" d="M 219.5,262.5 C 220.748,263.334 221.415,264.667 221.5,266.5C 221.333,267.833 221.167,269.167 221,270.5C 219.625,268.063 219.125,265.397 219.5,262.5 Z"/></g>
<g><path style="opacity:1" fill="#7d7a61" d="M 230.5,263.5 C 234.991,262.259 236.324,262.259 234.5,263.5C 234.167,274.167 233.833,274.167 233.5,263.5C 232.5,263.5 231.5,263.5 230.5,263.5 Z"/></g>
<g><path style="opacity:1" fill="#7e7160" d="M 243.5,265.5 C 241.915,264.998 241.415,263.998 242,262.5C 243.039,263.244 243.539,264.244 243.5,265.5 Z"/></g>
<g><path style="opacity:1" fill="#8d836c" d="M 191.5,265.5 C 191.5,266.167 191.5,266.833 191.5,267.5C 190.5,267.5 189.5,267.5 188.5,267.5C 188.5,268.5 188.5,269.5 188.5,270.5C 189.5,270.5 190.5,270.5 191.5,270.5C 190.432,271.434 189.099,271.768 187.5,271.5C 187.5,268.5 187.5,265.5 187.5,262.5C 188.873,262.343 190.207,262.51 191.5,263C 192.774,263.977 192.774,264.811 191.5,265.5 Z"/></g>
<g><path style="opacity:1" fill="#140a05" d="M 191.5,265.5 C 189.014,266.777 188.347,266.111 189.5,263.5C 190.522,263.855 191.189,264.522 191.5,265.5 Z"/></g>
<g><path style="opacity:1" fill="#646045" d="M 197.5,262.5 C 199.199,262.34 200.866,262.506 202.5,263C 201.552,263.483 200.552,263.649 199.5,263.5C 199.5,264.5 199.5,265.5 199.5,266.5C 203.5,266.833 203.5,267.167 199.5,267.5C 199.5,268.5 199.5,269.5 199.5,270.5C 200.552,270.351 201.552,270.517 202.5,271C 200.866,271.494 199.199,271.66 197.5,271.5C 197.5,268.5 197.5,265.5 197.5,262.5 Z"/></g>
<g><path style="opacity:1" fill="#685d49" d="M 210.5,262.5 C 212.79,265.077 213.956,268.077 214,271.5C 212,267.5 210,267.5 208,271.5C 208.206,268.394 209.039,265.394 210.5,262.5 Z"/></g>
<g><path style="opacity:1" fill="#8b8571" d="M 296.5,263.5 C 297.693,263.97 298.36,264.97 298.5,266.5C 298.333,267.5 298.167,268.5 298,269.5C 297.685,267.414 297.185,265.414 296.5,263.5 Z"/></g>
<g><path style="opacity:1" fill="#716e57" d="M 259.5,266.5 C 260.793,265.355 261.959,265.689 263,267.5C 263.49,268.793 263.657,270.127 263.5,271.5C 261.712,271.785 260.045,271.452 258.5,270.5C 259.687,270.446 261.02,270.113 262.5,269.5C 261.812,268.145 260.812,267.145 259.5,266.5 Z"/></g>
<g><path style="opacity:1" fill="#484129" d="M 307.5,266.5 C 306.883,266.389 306.383,266.056 306,265.5C 305.808,267.577 305.308,269.577 304.5,271.5C 303.167,268.5 303.167,265.5 304.5,262.5C 306.288,263.283 307.288,264.616 307.5,266.5 Z"/></g>
<g><path style="opacity:1" fill="#736d51" d="M 307.5,266.5 C 308.458,266.953 309.292,267.619 310,268.5C 310.333,266.5 310.667,264.5 311,262.5C 311.667,265.5 311.667,268.5 311,271.5C 309.198,270.211 308.031,268.544 307.5,266.5 Z"/></g>
<g><path style="opacity:1" fill="#725d3d" d="M 243.5,265.5 C 245.616,267.088 245.949,269.088 244.5,271.5C 243.534,269.604 243.201,267.604 243.5,265.5 Z"/></g>
<g><path style="opacity:1" fill="#7b756a" d="M 280.5,262.5 C 281.473,264.948 281.806,267.615 281.5,270.5C 286.5,271.003 286.167,271.336 280.5,271.5C 280.5,268.5 280.5,265.5 280.5,262.5 Z"/></g>
<g><path style="opacity:1" fill="#3c3108" d="M 410.5,255.5 C 409.833,263.833 409.167,272.167 408.5,280.5C 408.169,271.808 408.502,263.141 409.5,254.5C 410.107,254.624 410.44,254.957 410.5,255.5 Z"/></g>
<g><path style="opacity:1" fill="#2c2421" d="M 191.5,267.5 C 192.833,268.5 192.833,269.5 191.5,270.5C 190.5,270.5 189.5,270.5 188.5,270.5C 188.5,269.5 188.5,268.5 188.5,267.5C 189.5,267.5 190.5,267.5 191.5,267.5 Z"/></g>
<g><path style="opacity:1" fill="#72644d" d="M 271.5,262.5 C 273.006,264.975 274.339,267.642 275.5,270.5C 275.167,270.833 274.833,271.167 274.5,271.5C 273.614,270.675 273.281,269.675 273.5,268.5C 272.022,268.762 270.689,268.429 269.5,267.5C 270.397,267.331 271.397,266.998 272.5,266.5C 270.42,265.472 270.086,264.138 271.5,262.5 Z"/></g>
<g><path style="opacity:1" fill="#66614d" d="M 296.5,263.5 C 291.672,263.385 290.339,265.552 292.5,270C 293.833,270.333 295.167,270.667 296.5,271C 291.141,272.143 288.974,269.976 290,264.5C 292.016,262.392 294.183,262.058 296.5,263.5 Z"/></g>
<g><path style="opacity:1" fill="#a08c5f" d="M 393.5,235.5 C 394.167,235.5 394.833,235.5 395.5,235.5C 397.26,242.263 401.26,247.263 407.5,250.5C 408.386,249.675 408.719,248.675 408.5,247.5C 409.167,247.5 409.833,247.5 410.5,247.5C 411.455,249.283 412.122,251.283 412.5,253.5C 412.253,254.713 411.586,255.38 410.5,255.5C 410.44,254.957 410.107,254.624 409.5,254.5C 408.502,263.141 408.169,271.808 408.5,280.5C 399.246,286.294 389.579,291.294 379.5,295.5C 379.5,294.833 379.5,294.167 379.5,293.5C 388.14,288.846 396.806,284.179 405.5,279.5C 406.665,270.853 406.832,262.186 406,253.5C 403.002,251.667 400.502,249.334 398.5,246.5C 398.217,245.711 397.717,245.044 397,244.5C 396.5,255.495 396.333,266.495 396.5,277.5C 394.192,279.471 391.858,281.471 389.5,283.5C 388.662,283.158 388.328,282.492 388.5,281.5C 390.463,280.04 392.296,278.373 394,276.5C 394.76,262.808 394.594,249.141 393.5,235.5 Z"/></g>
<g><path style="opacity:1" fill="#4d3c14" d="M 398.5,246.5 C 397.833,256.833 397.167,267.167 396.5,277.5C 396.333,266.495 396.5,255.495 397,244.5C 397.717,245.044 398.217,245.711 398.5,246.5 Z"/></g>
<g><path style="opacity:1" fill="#8a7339" d="M 388.5,281.5 C 388.328,282.492 388.662,283.158 389.5,283.5C 386.026,286.802 382.359,289.968 378.5,293C 378.728,293.399 379.062,293.565 379.5,293.5C 379.5,294.167 379.5,294.833 379.5,295.5C 379.027,296.906 378.027,297.573 376.5,297.5C 374.034,296.702 372.034,295.369 370.5,293.5C 374.34,291.739 377.673,289.239 380.5,286C 375.173,286.722 370.173,288.556 365.5,291.5C 364.662,291.158 364.328,290.492 364.5,289.5C 371.996,284.642 379.996,281.975 388.5,281.5 Z"/></g>
<g><path style="opacity:1" fill="#120700" d="M 370.5,293.5 C 367.314,294.963 363.98,295.463 360.5,295C 362.233,293.811 363.9,292.644 365.5,291.5C 370.173,288.556 375.173,286.722 380.5,286C 377.673,289.239 374.34,291.739 370.5,293.5 Z"/></g>
<g><path style="opacity:1" fill="#0e0400" d="M 354.5,307.5 C 353.279,308.028 352.113,308.695 351,309.5C 351.579,307.008 352.746,304.675 354.5,302.5C 355.657,300.862 356.824,299.196 358,297.5C 361.458,298.435 364.958,298.602 368.5,298C 364.286,301.932 359.62,305.099 354.5,307.5 Z"/></g>
<g><path style="opacity:1" fill="#54401a" d="M 351.5,268.5 C 351.842,269.338 352.508,269.672 353.5,269.5C 349.871,283.004 347.371,296.671 346,310.5C 348.748,307.266 351.248,303.932 353.5,300.5C 353.328,301.492 353.662,302.158 354.5,302.5C 352.746,304.675 351.579,307.008 351,309.5C 352.113,308.695 353.279,308.028 354.5,307.5C 355.183,309.176 356.517,309.843 358.5,309.5C 333.525,330.804 308.525,352.137 283.5,373.5C 283.672,372.508 283.338,371.842 282.5,371.5C 301.15,356.562 318.983,340.562 336,323.5C 336.465,322.069 337.299,320.903 338.5,320C 338.167,319.833 337.833,319.667 337.5,319.5C 310.113,334.192 282.779,348.858 255.5,363.5C 254.5,363.5 253.5,363.5 252.5,363.5C 282.424,346.867 312.424,330.201 342.5,313.5C 343.796,305.864 344.629,298.197 345,290.5C 338.755,283.676 334.922,275.676 333.5,266.5C 340.415,268.914 345.249,273.58 348,280.5C 349.192,276.377 350.359,272.377 351.5,268.5 Z"/></g>
<g><path style="opacity:1" fill="#0f0401" d="M 337.5,271.5 C 341.884,273.394 344.718,276.727 346,281.5C 346.667,283.5 346.667,285.5 346,287.5C 341.633,282.97 338.799,277.637 337.5,271.5 Z"/></g>
<g><path style="opacity:1" fill="#715d2f" d="M 375.5,258.5 C 376.167,258.5 376.833,258.5 377.5,258.5C 373.331,269.173 368.331,279.507 362.5,289.5C 362.97,290.463 363.637,290.463 364.5,289.5C 364.328,290.492 364.662,291.158 365.5,291.5C 363.9,292.644 362.233,293.811 360.5,295C 363.98,295.463 367.314,294.963 370.5,293.5C 372.034,295.369 374.034,296.702 376.5,297.5C 370.193,300.991 364.193,304.991 358.5,309.5C 356.517,309.843 355.183,309.176 354.5,307.5C 359.62,305.099 364.286,301.932 368.5,298C 364.958,298.602 361.458,298.435 358,297.5C 356.824,299.196 355.657,300.862 354.5,302.5C 353.662,302.158 353.328,301.492 353.5,300.5C 361.868,287.099 369.201,273.099 375.5,258.5 Z"/></g>
<g><path style="opacity:1" fill="#060201" d="M 151.5,313.5 C 177.203,328.352 203.203,342.685 229.5,356.5C 231.906,357.523 231.906,358.19 229.5,358.5C 215.273,354.693 200.939,351.36 186.5,348.5C 171.769,344.98 157.102,341.146 142.5,337C 136.64,325.086 130.974,313.086 125.5,301C 134.228,304.863 142.894,309.029 151.5,313.5 Z"/></g>
<g><path style="opacity:1" fill="#1d0a00" d="M 350.5,311.5 C 352.842,311.775 352.842,312.608 350.5,314C 348.208,315.29 346.208,316.957 344.5,319C 343.833,319.667 343.167,319.667 342.5,319C 344.586,315.806 347.252,313.306 350.5,311.5 Z"/></g>
<g><path style="opacity:1" fill="#715733" d="M 151.5,313.5 C 152.167,313.5 152.833,313.5 153.5,313.5C 178.621,326.561 203.621,339.894 228.5,353.5C 228.557,354.609 228.89,355.609 229.5,356.5C 203.203,342.685 177.203,328.352 151.5,313.5 Z"/></g>
<g><path style="opacity:1" fill="#050201" d="M 282.5,371.5 C 274.148,369.662 265.815,367.662 257.5,365.5C 256.287,365.253 255.62,364.586 255.5,363.5C 282.779,348.858 310.113,334.192 337.5,319.5C 337.833,319.667 338.167,319.833 338.5,320C 337.299,320.903 336.465,322.069 336,323.5C 318.983,340.562 301.15,356.562 282.5,371.5 Z"/></g>
<g><path style="opacity:1" fill="#826943" d="M 123.5,296.5 C 133.86,301.676 143.86,307.342 153.5,313.5C 152.833,313.5 152.167,313.5 151.5,313.5C 142.894,309.029 134.228,304.863 125.5,301C 130.974,313.086 136.64,325.086 142.5,337C 157.102,341.146 171.769,344.98 186.5,348.5C 185.791,349.404 184.791,349.737 183.5,349.5C 168.989,346.719 154.656,343.219 140.5,339C 134.439,324.959 128.106,311.125 121.5,297.5C 122.492,297.672 123.158,297.338 123.5,296.5 Z"/></g>
<g><path style="opacity:1" fill="#654521" d="M 186.5,348.5 C 200.939,351.36 215.273,354.693 229.5,358.5C 231.906,358.19 231.906,357.523 229.5,356.5C 228.89,355.609 228.557,354.609 228.5,353.5C 233.505,356.335 238.505,359.169 243.5,362C 246.393,363.149 249.393,363.649 252.5,363.5C 253.5,363.5 254.5,363.5 255.5,363.5C 255.62,364.586 256.287,365.253 257.5,365.5C 265.815,367.662 274.148,369.662 282.5,371.5C 283.338,371.842 283.672,372.508 283.5,373.5C 250.083,366.412 216.75,358.412 183.5,349.5C 184.791,349.737 185.791,349.404 186.5,348.5 Z"/></g>
</svg>
